<?xml version="1.0" encoding="utf-8"?>
<!-- Generator: Adobe Illustrator 15.0.0, SVG Export Plug-In . SVG Version: 6.00 Build 0)  -->
<!DOCTYPE svg PUBLIC "-//W3C//DTD SVG 1.1//EN" "http://www.w3.org/Graphics/SVG/1.1/DTD/svg11.dtd">
<svg version="1.1" id="レイヤー_1" xmlns="http://www.w3.org/2000/svg" xmlns:xlink="http://www.w3.org/1999/xlink" x="0px"
	 y="0px" width="36.392px" height="52.435px" viewBox="0 0 36.392 52.435" enable-background="new 0 0 36.392 52.435"
	 xml:space="preserve">
<path fill="none" stroke="#0000FA" stroke-width="0.5" stroke-linecap="round" stroke-linejoin="round" stroke-miterlimit="10" d="
	M13.241,27.603L11.6,27.285c-0.895-1.191-2.306-1.972-3.91-1.972c-2.71,0-4.906,2.197-4.906,4.907c0,2.709,2.196,4.906,4.906,4.906
	c1.653,0,3.107-0.824,3.996-2.076l1.556-0.301V27.603z"/>
<path fill="none" stroke="#0000FA" stroke-width="0.5" stroke-linecap="round" stroke-linejoin="round" stroke-miterlimit="10" d="
	M7.712,32.803h2.552c0.725,0,1.313-1.157,1.313-2.583c0-1.427-0.588-2.584-1.313-2.584H7.712H5.16c-0.725,0-1.313,1.157-1.313,2.584
	c0,1.426,0.588,2.583,1.313,2.583H7.712z"/>
<circle fill="none" stroke="#0000FA" stroke-width="0.5" stroke-linecap="round" stroke-linejoin="round" stroke-miterlimit="10" cx="7.713" cy="30.22" r="0.781"/>
<polyline fill="none" stroke="#0000FA" stroke-width="0.5" stroke-linecap="round" stroke-linejoin="round" stroke-miterlimit="10" points="
	7.069,30.755 5.671,30.755 5.671,29.684 7.145,29.684 "/>
<polyline fill="none" stroke="#0000FA" stroke-width="0.5" stroke-linecap="round" stroke-linejoin="round" stroke-miterlimit="10" points="
	8.355,30.755 9.754,30.755 9.754,29.684 8.28,29.684 "/>
<circle fill="none" stroke="#0000FA" stroke-width="0.5" stroke-linecap="round" stroke-linejoin="round" stroke-miterlimit="10" cx="5.082" cy="22.127" r="0.995"/>
<circle fill="none" stroke="#0000FA" stroke-width="0.5" stroke-linecap="round" stroke-linejoin="round" stroke-miterlimit="10" cx="7.927" cy="21.517" r="0.995"/>
<path fill="none" stroke="#0000FA" stroke-width="0.5" stroke-linecap="round" stroke-linejoin="round" stroke-miterlimit="10" d="
	M18.15,15.226h-4.583c0,0-0.843-0.038-1.159,0.686l-0.272,0.549h6.014"/>
<polyline fill="none" stroke="#0000FA" stroke-width="0.5" stroke-linecap="round" stroke-linejoin="round" stroke-miterlimit="10" points="
	12.046,16.461 10.359,16.706 10.192,17.789 12.408,23.519 12.136,25.969 14.473,27.455 18.15,27.455 "/>
<path fill="none" stroke="#0000FA" stroke-width="0.5" stroke-linecap="round" stroke-linejoin="round" stroke-miterlimit="10" d="
	M10.192,17.789c0,0-3,0.698-4.812,1.417c-1.813,0.718-4.063,1.562-4.355,5.687c-0.291,4.125,0.25,15.917,0.459,19.75
	c0.208,3.833,2.348,5.125,4.924,5.209h3.346"/>
<path fill="none" stroke="#0000FA" stroke-width="0.5" stroke-linecap="round" stroke-linejoin="round" stroke-miterlimit="10" d="
	M18.15,50.143c-6.167,0-8.396-0.292-8.396-0.292l-0.832-0.875c-5.853-0.125-6.397-4-6.605-8.125
	C2.108,36.726,1.983,30.685,2.108,28.31c0.125-2.375,1.542-3.958,3.562-4.25c2.021-0.292,6.738-0.542,6.738-0.542h5.742"/>
<polyline fill="none" stroke="#0000FA" stroke-width="0.5" stroke-linecap="round" stroke-linejoin="round" stroke-miterlimit="10" points="
	12.961,32.803 12.961,33.485 11.192,34.601 8.922,48.976 "/>
<circle fill="none" stroke="#0000FA" stroke-width="0.5" stroke-linecap="round" stroke-linejoin="round" stroke-miterlimit="10" cx="15.286" cy="20.204" r="0.827"/>
<circle fill="none" stroke="#0000FA" stroke-width="0.5" stroke-linecap="round" stroke-linejoin="round" stroke-miterlimit="10" cx="15.286" cy="21.032" r="0.827"/>
<line fill="none" stroke="#0000FA" stroke-width="0.5" stroke-linecap="round" stroke-linejoin="round" stroke-miterlimit="10" x1="14.458" y1="20.204" x2="14.458" y2="21.032"/>
<line fill="none" stroke="#0000FA" stroke-width="0.5" stroke-linecap="round" stroke-linejoin="round" stroke-miterlimit="10" x1="16.114" y1="20.204" x2="16.114" y2="21.032"/>
<polyline fill="none" stroke="#0000FA" stroke-width="0.5" stroke-linecap="round" stroke-linejoin="round" stroke-miterlimit="10" points="
	18.15,17.568 16.775,17.568 16.974,19.16 18.15,19.16 "/>
<path fill="none" stroke="#0000FA" stroke-width="0.5" stroke-linecap="round" stroke-linejoin="round" stroke-miterlimit="10" d="
	M11.249,20.521c0,0,0.935-0.162,3.21-0.412"/>
<polyline fill="none" stroke="#0000FA" stroke-width="0.5" stroke-linecap="round" stroke-linejoin="round" stroke-miterlimit="10" points="
	16.511,15.226 16.982,13.901 18.149,13.901 "/>
<polyline fill="none" stroke="#0000FA" stroke-width="0.5" stroke-linecap="round" stroke-linejoin="round" stroke-miterlimit="10" points="
	1.95,21.367 1.463,19.678 2.752,18.998 3.601,20.027 "/>
<polygon fill="none" stroke="#0000FA" stroke-width="0.5" stroke-linecap="round" stroke-linejoin="round" stroke-miterlimit="10" points="
	0.25,16.958 1.192,16.461 2.443,19.16 1.771,19.515 "/>
<polyline fill="none" stroke="#0000FA" stroke-width="0.5" stroke-linecap="round" stroke-linejoin="round" stroke-miterlimit="10" points="
	2.216,18.671 4.016,17.723 5.24,19.261 "/>
<polygon fill="none" stroke="#0000FA" stroke-width="0.5" stroke-linecap="round" stroke-linejoin="round" stroke-miterlimit="10" points="
	0.941,14.522 1.883,14.025 3.707,17.886 3.035,18.24 "/>
<line fill="none" stroke="#0000FA" stroke-width="0.5" stroke-linecap="round" stroke-linejoin="round" stroke-miterlimit="10" x1="16.114" y1="20.109" x2="18.149" y2="20.109"/>
<polyline fill="none" stroke="#0000FA" stroke-width="0.5" stroke-linecap="round" stroke-linejoin="round" stroke-miterlimit="10" points="
	6.232,49.842 8.494,52.185 18.149,52.185 "/>
<path fill="none" stroke="#0000FA" stroke-width="0.5" stroke-linecap="round" stroke-linejoin="round" stroke-miterlimit="10" d="
	M28.702,25.313c-1.604,0-3.016,0.781-3.91,1.971l-1.643,0.319v5.145l1.557,0.302c0.889,1.253,2.343,2.076,3.996,2.076
	c2.71,0,4.905-2.196,4.905-4.906C33.607,27.511,31.412,25.313,28.702,25.313z"/>
<path fill="none" stroke="#0000FA" stroke-width="0.5" stroke-linecap="round" stroke-linejoin="round" stroke-miterlimit="10" d="
	M28.679,32.803h-2.552c-0.725,0-1.313-1.157-1.313-2.583c0-1.427,0.589-2.584,1.313-2.584h2.552h2.552
	c0.726,0,1.313,1.157,1.313,2.584c0,1.426-0.588,2.583-1.313,2.583H28.679z"/>
<circle fill="none" stroke="#0000FA" stroke-width="0.5" stroke-linecap="round" stroke-linejoin="round" stroke-miterlimit="10" cx="28.679" cy="30.22" r="0.781"/>
<polyline fill="none" stroke="#0000FA" stroke-width="0.5" stroke-linecap="round" stroke-linejoin="round" stroke-miterlimit="10" points="
	29.322,30.755 30.721,30.755 30.721,29.684 29.246,29.684 "/>
<polyline fill="none" stroke="#0000FA" stroke-width="0.5" stroke-linecap="round" stroke-linejoin="round" stroke-miterlimit="10" points="
	28.036,30.755 26.637,30.755 26.637,29.684 28.111,29.684 "/>
<circle fill="none" stroke="#0000FA" stroke-width="0.5" stroke-linecap="round" stroke-linejoin="round" stroke-miterlimit="10" cx="31.309" cy="22.127" r="0.996"/>
<circle fill="none" stroke="#0000FA" stroke-width="0.5" stroke-linecap="round" stroke-linejoin="round" stroke-miterlimit="10" cx="28.464" cy="21.517" r="0.996"/>
<path fill="none" stroke="#0000FA" stroke-width="0.5" stroke-linecap="round" stroke-linejoin="round" stroke-miterlimit="10" d="
	M18.241,15.226h4.583c0,0,0.843-0.038,1.158,0.686l0.272,0.549h-6.014"/>
<polyline fill="none" stroke="#0000FA" stroke-width="0.5" stroke-linecap="round" stroke-linejoin="round" stroke-miterlimit="10" points="
	24.345,16.461 26.032,16.706 26.199,17.789 23.983,23.519 24.255,25.969 21.918,27.455 18.241,27.455 "/>
<path fill="none" stroke="#0000FA" stroke-width="0.5" stroke-linecap="round" stroke-linejoin="round" stroke-miterlimit="10" d="
	M26.199,17.789c0,0,3,0.698,4.812,1.417c1.813,0.718,4.063,1.562,4.355,5.687c0.291,4.125-0.25,15.917-0.459,19.75
	c-0.208,3.833-2.348,5.125-4.924,5.209h-3.347"/>
<path fill="none" stroke="#0000FA" stroke-width="0.5" stroke-linecap="round" stroke-linejoin="round" stroke-miterlimit="10" d="
	M18.241,50.143c6.167,0,8.396-0.292,8.396-0.292l0.832-0.875c5.854-0.125,6.397-4,6.605-8.125
	c0.209-4.125,0.334-10.166,0.209-12.541c-0.125-2.375-1.542-3.958-3.563-4.25c-2.021-0.292-6.738-0.542-6.738-0.542h-5.741"/>
<polyline fill="none" stroke="#0000FA" stroke-width="0.5" stroke-linecap="round" stroke-linejoin="round" stroke-miterlimit="10" points="
	23.43,32.803 23.43,33.485 25.199,34.601 27.469,48.976 "/>
<circle fill="none" stroke="#0000FA" stroke-width="0.5" stroke-linecap="round" stroke-linejoin="round" stroke-miterlimit="10" cx="21.105" cy="20.204" r="0.828"/>
<circle fill="none" stroke="#0000FA" stroke-width="0.5" stroke-linecap="round" stroke-linejoin="round" stroke-miterlimit="10" cx="21.105" cy="21.032" r="0.828"/>
<line fill="none" stroke="#0000FA" stroke-width="0.5" stroke-linecap="round" stroke-linejoin="round" stroke-miterlimit="10" x1="21.933" y1="20.204" x2="21.933" y2="21.032"/>
<line fill="none" stroke="#0000FA" stroke-width="0.5" stroke-linecap="round" stroke-linejoin="round" stroke-miterlimit="10" x1="20.277" y1="20.204" x2="20.277" y2="21.032"/>
<polyline fill="none" stroke="#0000FA" stroke-width="0.5" stroke-linecap="round" stroke-linejoin="round" stroke-miterlimit="10" points="
	18.241,17.568 19.616,17.568 19.417,19.16 18.241,19.16 "/>
<path fill="none" stroke="#0000FA" stroke-width="0.5" stroke-linecap="round" stroke-linejoin="round" stroke-miterlimit="10" d="
	M25.143,20.521c0,0-0.936-0.162-3.21-0.412"/>
<polyline fill="none" stroke="#0000FA" stroke-width="0.5" stroke-linecap="round" stroke-linejoin="round" stroke-miterlimit="10" points="
	19.88,15.226 19.409,13.901 18.241,13.901 "/>
<polyline fill="none" stroke="#0000FA" stroke-width="0.5" stroke-linecap="round" stroke-linejoin="round" stroke-miterlimit="10" points="
	34.441,21.367 34.929,19.678 33.64,18.998 32.79,20.027 "/>
<polygon fill="none" stroke="#0000FA" stroke-width="0.5" stroke-linecap="round" stroke-linejoin="round" stroke-miterlimit="10" points="
	36.142,16.958 35.199,16.461 33.948,19.16 34.62,19.515 "/>
<polyline fill="none" stroke="#0000FA" stroke-width="0.5" stroke-linecap="round" stroke-linejoin="round" stroke-miterlimit="10" points="
	34.175,18.671 32.376,17.723 31.15,19.261 "/>
<polygon fill="none" stroke="#0000FA" stroke-width="0.5" stroke-linecap="round" stroke-linejoin="round" stroke-miterlimit="10" points="
	35.45,14.522 34.508,14.025 32.685,17.886 33.356,18.24 "/>
<line fill="none" stroke="#0000FA" stroke-width="0.5" stroke-linecap="round" stroke-linejoin="round" stroke-miterlimit="10" x1="20.277" y1="20.109" x2="18.241" y2="20.109"/>
<polyline fill="none" stroke="#0000FA" stroke-width="0.5" stroke-linecap="round" stroke-linejoin="round" stroke-miterlimit="10" points="
	30.159,49.842 27.897,52.185 18.241,52.185 "/>
<line fill="none" stroke="#0000FA" stroke-width="0.5" stroke-linecap="round" stroke-linejoin="round" stroke-miterlimit="10" x1="18.241" y1="0.25" x2="18.241" y2="13.901"/>
<rect x="15.51" y="29.928" fill="none" stroke="#0000FA" stroke-width="0.5" stroke-linecap="round" stroke-linejoin="round" stroke-miterlimit="10" width="5.371" height="3.559"/>
</svg>
