<?xml version="1.0" encoding="utf-8"?>
<!-- Generator: Adobe Illustrator 15.0.0, SVG Export Plug-In . SVG Version: 6.00 Build 0)  -->
<!DOCTYPE svg PUBLIC "-//W3C//DTD SVG 1.1//EN" "http://www.w3.org/Graphics/SVG/1.1/DTD/svg11.dtd">
<svg version="1.1" id="レイヤー_1" xmlns="http://www.w3.org/2000/svg" xmlns:xlink="http://www.w3.org/1999/xlink" x="0px"
	 y="0px" width="54.41px" height="22.228px" viewBox="0 0 54.41 22.228" enable-background="new 0 0 54.41 22.228"
	 xml:space="preserve">
<path fill="none" stroke="#0000FA" stroke-width="0.5" stroke-linecap="round" stroke-linejoin="round" stroke-miterlimit="10" d="
	M20.528,6.91c0,0-0.024-0.114-0.041-0.276c-0.016-0.163,0.065-0.362,0.065-0.362c1.204-3.452,2.757-5.42,3.343-5.697
	c0.585-0.276,2.448-0.325,3.31-0.325c0.862,0,2.724,0.049,3.31,0.325c0.585,0.277,2.14,2.245,3.344,5.697
	c0,0,0.08,0.199,0.063,0.362c-0.016,0.162-0.04,0.276-0.04,0.276H20.528z"/>
<line fill="none" stroke="#0000FA" stroke-width="0.5" stroke-linecap="round" stroke-linejoin="round" stroke-miterlimit="10" x1="11.136" y1="3.978" x2="0.25" y2="3.978"/>
<rect x="4.37" y="6.47" fill="none" stroke="#0000FA" stroke-width="0.5" stroke-linecap="round" stroke-linejoin="round" stroke-miterlimit="10" width="2.646" height="2.205"/>
<line fill="none" stroke="#0000FA" stroke-width="0.5" stroke-linecap="round" stroke-linejoin="round" stroke-miterlimit="10" x1="5.693" y1="6.469" x2="5.693" y2="3.978"/>
<circle fill="none" stroke="#0000FA" stroke-width="0.5" stroke-linecap="round" stroke-linejoin="round" stroke-miterlimit="10" cx="10.661" cy="21.201" r="0.776"/>
<polyline fill="none" stroke="#0000FA" stroke-width="0.5" stroke-linecap="round" stroke-linejoin="round" stroke-miterlimit="10" points="
	47.394,8.674 27.205,8.674 7.016,8.674 "/>
<polyline fill="none" stroke="#0000FA" stroke-width="0.5" stroke-linecap="round" stroke-linejoin="round" stroke-miterlimit="10" points="
	42.542,14.82 27.205,14.82 11.867,14.82 "/>
<line fill="none" stroke="#0000FA" stroke-width="0.5" stroke-linecap="round" stroke-linejoin="round" stroke-miterlimit="10" x1="43.273" y1="3.978" x2="54.159" y2="3.978"/>
<rect x="47.393" y="6.47" fill="none" stroke="#0000FA" stroke-width="0.5" stroke-linecap="round" stroke-linejoin="round" stroke-miterlimit="10" width="2.646" height="2.205"/>
<line fill="none" stroke="#0000FA" stroke-width="0.5" stroke-linecap="round" stroke-linejoin="round" stroke-miterlimit="10" x1="48.717" y1="6.469" x2="48.717" y2="3.978"/>
<path fill="none" stroke="#0000FA" stroke-width="0.5" stroke-linecap="round" stroke-linejoin="round" stroke-miterlimit="10" d="
	M43.749,21.201l-4.182-7.967c-0.752-1.296-1.338-2.913-3.206-2.913h-9.156h-9.157c-1.868,0-2.454,1.617-3.206,2.913l-4.181,7.967"/>
<circle fill="none" stroke="#0000FA" stroke-width="0.5" stroke-linecap="round" stroke-linejoin="round" stroke-miterlimit="10" cx="43.749" cy="21.201" r="0.776"/>
<rect x="23.955" y="13.564" fill="none" stroke="#0000FA" stroke-width="0.5" stroke-linecap="round" stroke-linejoin="round" stroke-miterlimit="10" width="6.5" height="2.513"/>
<rect x="24.34" y="16.077" fill="none" stroke="#0000FA" stroke-width="0.5" stroke-linecap="round" stroke-linejoin="round" stroke-miterlimit="10" width="5.73" height="3.798"/>
<circle fill="none" stroke="#0000FA" stroke-width="0.5" stroke-linecap="round" stroke-linejoin="round" stroke-miterlimit="10" cx="27.205" cy="17.976" r="0.936"/>
</svg>
