<?xml version="1.0" encoding="utf-8"?>
<!-- Generator: Adobe Illustrator 15.0.0, SVG Export Plug-In . SVG Version: 6.00 Build 0)  -->
<!DOCTYPE svg PUBLIC "-//W3C//DTD SVG 1.1//EN" "http://www.w3.org/Graphics/SVG/1.1/DTD/svg11.dtd">
<svg version="1.1" id="レイヤー_1" xmlns="http://www.w3.org/2000/svg" xmlns:xlink="http://www.w3.org/1999/xlink" x="0px"
	 y="0px" width="28.16px" height="36.382px" viewBox="0 0 28.16 36.382" enable-background="new 0 0 28.16 36.382"
	 xml:space="preserve">
<rect x="0.25" y="0.25" fill="none" stroke="#0000FA" stroke-width="0.5" stroke-linecap="round" stroke-linejoin="round" stroke-miterlimit="10" width="25.66" height="33.882"/>
<polyline fill="none" stroke="#0000FA" stroke-width="0.5" stroke-linecap="round" stroke-linejoin="round" stroke-miterlimit="10" points="
	27.91,2.25 27.91,36.132 2.25,36.132 "/>
<line fill="none" stroke="#0000FA" stroke-width="0.5" stroke-linecap="round" stroke-linejoin="round" stroke-miterlimit="10" x1="4.344" y1="6.072" x2="21.815" y2="6.072"/>
<line fill="none" stroke="#0000FA" stroke-width="0.5" stroke-linecap="round" stroke-linejoin="round" stroke-miterlimit="10" x1="4.344" y1="8.801" x2="21.815" y2="8.801"/>
<line fill="none" stroke="#0000FA" stroke-width="0.5" stroke-linecap="round" stroke-linejoin="round" stroke-miterlimit="10" x1="4.344" y1="11.53" x2="21.815" y2="11.53"/>
<line fill="none" stroke="#0000FA" stroke-width="0.5" stroke-linecap="round" stroke-linejoin="round" stroke-miterlimit="10" x1="4.344" y1="14.258" x2="21.815" y2="14.258"/>
<line fill="none" stroke="#0000FA" stroke-width="0.5" stroke-linecap="round" stroke-linejoin="round" stroke-miterlimit="10" x1="4.344" y1="16.987" x2="21.815" y2="16.987"/>
<line fill="none" stroke="#0000FA" stroke-width="0.5" stroke-linecap="round" stroke-linejoin="round" stroke-miterlimit="10" x1="4.344" y1="19.716" x2="21.815" y2="19.716"/>
<g enable-background="new    ">
	<path fill="#0000FA" d="M5.491,25.736h0.016l0.534-1.456h0.805L6.02,26.145h0.49v0.52H5.854v0.288H6.51v0.514H5.854v0.592H5.12
		v-0.592H4.416v-0.514H5.12v-0.288H4.416v-0.52h0.558L4.149,24.28h0.805L5.491,25.736z"/>
	<path fill="#0000FA" d="M9.321,26.577c0,0.503-0.1,0.885-0.3,1.146s-0.468,0.391-0.803,0.391c-0.339,0-0.609-0.13-0.81-0.391
		s-0.301-0.643-0.301-1.146v-0.813c0-0.502,0.1-0.884,0.3-1.146c0.2-0.263,0.468-0.394,0.806-0.394s0.606,0.131,0.807,0.394
		c0.201,0.262,0.301,0.644,0.301,1.146V26.577z M8.584,25.699c0-0.304-0.032-0.526-0.096-0.667c-0.064-0.14-0.153-0.205-0.268-0.197
		H8.205C8.089,24.827,8,24.892,7.938,25.032c-0.063,0.141-0.093,0.363-0.093,0.667v0.938c0,0.308,0.032,0.532,0.096,0.673
		c0.064,0.142,0.154,0.207,0.27,0.196h0.016c0.114,0.011,0.202-0.055,0.265-0.194c0.063-0.141,0.093-0.365,0.093-0.675V25.699z"/>
	<path fill="#0000FA" d="M11.953,26.577c0,0.503-0.1,0.885-0.3,1.146s-0.468,0.391-0.803,0.391c-0.339,0-0.609-0.13-0.81-0.391
		s-0.301-0.643-0.301-1.146v-0.813c0-0.502,0.1-0.884,0.3-1.146c0.2-0.263,0.468-0.394,0.806-0.394s0.606,0.131,0.807,0.394
		c0.201,0.262,0.301,0.644,0.301,1.146V26.577z M11.215,25.699c0-0.304-0.032-0.526-0.096-0.667
		c-0.064-0.14-0.153-0.205-0.268-0.197h-0.016c-0.116-0.008-0.205,0.058-0.267,0.197c-0.063,0.141-0.093,0.363-0.093,0.667v0.938
		c0,0.308,0.032,0.532,0.096,0.673c0.064,0.142,0.154,0.207,0.27,0.196h0.016c0.114,0.011,0.202-0.055,0.265-0.194
		c0.063-0.141,0.093-0.365,0.093-0.675V25.699z"/>
	<path fill="#0000FA" d="M14.583,26.577c0,0.503-0.1,0.885-0.299,1.146s-0.468,0.391-0.803,0.391c-0.339,0-0.609-0.13-0.81-0.391
		s-0.301-0.643-0.301-1.146v-0.813c0-0.502,0.1-0.884,0.3-1.146c0.2-0.263,0.468-0.394,0.806-0.394s0.606,0.131,0.807,0.394
		c0.201,0.262,0.301,0.644,0.301,1.146V26.577z M13.847,25.699c0-0.304-0.032-0.526-0.096-0.667
		c-0.064-0.14-0.153-0.205-0.268-0.197h-0.016c-0.116-0.008-0.205,0.058-0.267,0.197c-0.063,0.141-0.093,0.363-0.093,0.667v0.938
		c0,0.308,0.032,0.532,0.096,0.673c0.064,0.142,0.154,0.207,0.27,0.196h0.016c0.114,0.011,0.202-0.055,0.265-0.194
		c0.063-0.141,0.093-0.365,0.093-0.675V25.699z"/>
	<path fill="#0000FA" d="M17.216,26.577c0,0.503-0.101,0.885-0.301,1.146c-0.199,0.261-0.467,0.391-0.803,0.391
		c-0.34,0-0.609-0.13-0.81-0.391s-0.302-0.643-0.302-1.146v-0.813c0-0.502,0.101-0.884,0.301-1.146
		c0.199-0.263,0.468-0.394,0.805-0.394c0.338,0,0.607,0.131,0.808,0.394c0.2,0.262,0.302,0.644,0.302,1.146V26.577z M16.478,25.699
		c0-0.304-0.031-0.526-0.096-0.667c-0.063-0.14-0.152-0.205-0.268-0.197h-0.016c-0.115-0.008-0.204,0.058-0.267,0.197
		c-0.063,0.141-0.093,0.363-0.093,0.667v0.938c0,0.308,0.031,0.532,0.096,0.673c0.063,0.142,0.154,0.207,0.27,0.196h0.016
		c0.114,0.011,0.202-0.055,0.265-0.194c0.063-0.141,0.093-0.365,0.093-0.675V25.699z"/>
</g>
<g enable-background="new    ">
	<path fill="#0000FA" d="M21.443,26.577c0,0.503-0.101,0.885-0.301,1.146c-0.199,0.261-0.467,0.391-0.803,0.391
		c-0.34,0-0.609-0.13-0.81-0.391s-0.302-0.643-0.302-1.146v-0.813c0-0.502,0.101-0.884,0.301-1.146
		c0.199-0.263,0.468-0.394,0.805-0.394c0.338,0,0.607,0.131,0.808,0.394c0.2,0.262,0.302,0.644,0.302,1.146V26.577z M20.705,25.699
		c0-0.304-0.031-0.526-0.096-0.667c-0.063-0.14-0.152-0.205-0.268-0.197h-0.016c-0.115-0.008-0.204,0.058-0.267,0.197
		c-0.063,0.141-0.093,0.363-0.093,0.667v0.938c0,0.308,0.031,0.532,0.096,0.673c0.063,0.142,0.154,0.207,0.27,0.196h0.016
		c0.114,0.011,0.202-0.055,0.265-0.194c0.063-0.141,0.093-0.365,0.093-0.675V25.699z"/>
</g>
</svg>
