<?xml version="1.0" encoding="utf-8"?>
<!-- Generator: Adobe Illustrator 15.0.0, SVG Export Plug-In . SVG Version: 6.00 Build 0)  -->
<!DOCTYPE svg PUBLIC "-//W3C//DTD SVG 1.1//EN" "http://www.w3.org/Graphics/SVG/1.1/DTD/svg11.dtd">
<svg version="1.1" id="レイヤー_1" xmlns="http://www.w3.org/2000/svg" xmlns:xlink="http://www.w3.org/1999/xlink" x="0px"
	 y="0px" width="54.41px" height="35.813px" viewBox="0 0 54.41 35.813" enable-background="new 0 0 54.41 35.813"
	 xml:space="preserve">
<path fill="none" stroke="#0000FA" stroke-width="0.5" stroke-linecap="round" stroke-linejoin="round" stroke-miterlimit="10" d="
	M20.528,20.496c0,0-0.024-0.114-0.041-0.276c-0.016-0.163,0.065-0.362,0.065-0.362c1.204-3.452,2.757-5.419,3.343-5.697
	c0.585-0.276,2.448-0.325,3.31-0.325c0.862,0,2.724,0.049,3.31,0.325c0.585,0.277,2.14,2.245,3.344,5.697
	c0,0,0.08,0.199,0.063,0.362c-0.016,0.162-0.04,0.276-0.04,0.276H20.528z"/>
<line fill="none" stroke="#0000FA" stroke-width="0.5" stroke-linecap="round" stroke-linejoin="round" stroke-miterlimit="10" x1="11.136" y1="17.563" x2="0.25" y2="17.563"/>
<rect x="4.37" y="20.055" fill="none" stroke="#0000FA" stroke-width="0.5" stroke-linecap="round" stroke-linejoin="round" stroke-miterlimit="10" width="2.646" height="2.205"/>
<line fill="none" stroke="#0000FA" stroke-width="0.5" stroke-linecap="round" stroke-linejoin="round" stroke-miterlimit="10" x1="5.693" y1="20.054" x2="5.693" y2="17.563"/>
<circle fill="none" stroke="#0000FA" stroke-width="0.5" stroke-linecap="round" stroke-linejoin="round" stroke-miterlimit="10" cx="10.661" cy="34.787" r="0.776"/>
<polyline fill="none" stroke="#0000FA" stroke-width="0.5" stroke-linecap="round" stroke-linejoin="round" stroke-miterlimit="10" points="
	47.394,22.26 27.205,22.26 7.016,22.26 "/>
<polyline fill="none" stroke="#0000FA" stroke-width="0.5" stroke-linecap="round" stroke-linejoin="round" stroke-miterlimit="10" points="
	42.542,28.406 27.205,28.406 11.867,28.406 "/>
<line fill="none" stroke="#0000FA" stroke-width="0.5" stroke-linecap="round" stroke-linejoin="round" stroke-miterlimit="10" x1="43.273" y1="17.563" x2="54.159" y2="17.563"/>
<rect x="47.393" y="20.055" fill="none" stroke="#0000FA" stroke-width="0.5" stroke-linecap="round" stroke-linejoin="round" stroke-miterlimit="10" width="2.646" height="2.205"/>
<line fill="none" stroke="#0000FA" stroke-width="0.5" stroke-linecap="round" stroke-linejoin="round" stroke-miterlimit="10" x1="48.717" y1="20.054" x2="48.717" y2="17.563"/>
<path fill="none" stroke="#0000FA" stroke-width="0.5" stroke-linecap="round" stroke-linejoin="round" stroke-miterlimit="10" d="
	M43.749,34.787l-4.182-7.967c-0.752-1.296-1.338-2.913-3.206-2.913h-9.156h-9.157c-1.868,0-2.454,1.617-3.206,2.913l-4.181,7.967"/>
<circle fill="none" stroke="#0000FA" stroke-width="0.5" stroke-linecap="round" stroke-linejoin="round" stroke-miterlimit="10" cx="43.749" cy="34.787" r="0.776"/>
<rect x="23.955" y="27.15" fill="none" stroke="#0000FA" stroke-width="0.5" stroke-linecap="round" stroke-linejoin="round" stroke-miterlimit="10" width="6.5" height="2.513"/>
<rect x="24.34" y="29.663" fill="none" stroke="#0000FA" stroke-width="0.5" stroke-linecap="round" stroke-linejoin="round" stroke-miterlimit="10" width="5.73" height="3.798"/>
<circle fill="none" stroke="#0000FA" stroke-width="0.5" stroke-linecap="round" stroke-linejoin="round" stroke-miterlimit="10" cx="27.205" cy="31.561" r="0.936"/>
<rect x="10.897" y="2.258" fill="none" stroke="#0000FA" stroke-width="0.5" stroke-linecap="round" stroke-linejoin="round" stroke-miterlimit="10" width="7.454" height="10.35"/>
<rect x="11.659" y="0.559" fill="none" stroke="#0000FA" stroke-width="0.5" stroke-linecap="round" stroke-linejoin="round" stroke-miterlimit="10" width="5.93" height="1.699"/>
<polygon fill="#0000FA" points="15.233,4.157 12.708,7.937 14.708,7.937 13.818,10.708 16.54,6.821 14.489,6.821 "/>
<rect x="34.952" y="4.368" fill="none" stroke="#0000FA" stroke-width="0.5" stroke-linecap="round" stroke-linejoin="round" stroke-miterlimit="10" width="10.56" height="8.197"/>
<path fill="none" stroke="#0000FA" stroke-width="0.5" stroke-linecap="round" stroke-linejoin="round" stroke-miterlimit="10" d="
	M38.484,5.792c0,0-1.789-2.167-1.789-3.753c0-0.988,0.801-1.789,1.789-1.789c0.987,0,1.788,0.801,1.788,1.789
	C40.272,3.028,39.272,4.875,38.484,5.792z"/>
<circle fill="none" stroke="#0000FA" stroke-width="0.5" stroke-linecap="round" stroke-linejoin="round" stroke-miterlimit="10" cx="38.484" cy="2.133" r="0.542"/>
<path fill="none" stroke="#0000FA" stroke-width="0.5" stroke-linecap="round" stroke-linejoin="round" stroke-miterlimit="10" d="
	M42.222,11.15c0,0-1.789-2.167-1.789-3.753c0-0.988,0.801-1.789,1.789-1.789s1.789,0.801,1.789,1.789
	C44.011,8.386,43.011,10.233,42.222,11.15z"/>
<circle fill="none" stroke="#0000FA" stroke-width="0.5" stroke-linecap="round" stroke-linejoin="round" stroke-miterlimit="10" cx="42.222" cy="7.492" r="0.542"/>
</svg>
