<?xml version="1.0" encoding="utf-8"?>
<!-- Generator: Adobe Illustrator 16.0.0, SVG Export Plug-In . SVG Version: 6.00 Build 0)  -->
<!DOCTYPE svg PUBLIC "-//W3C//DTD SVG 1.1//EN" "http://www.w3.org/Graphics/SVG/1.1/DTD/svg11.dtd">
<svg version="1.1" id="レイヤー_1" xmlns="http://www.w3.org/2000/svg" xmlns:xlink="http://www.w3.org/1999/xlink" x="0px"
	 y="0px" width="675.761px" height="683.048px" viewBox="0 0 675.761 683.048" enable-background="new 0 0 675.761 683.048"
	 xml:space="preserve">
<path fill="none" stroke="#FFFFFF" stroke-width="9" stroke-linecap="round" stroke-linejoin="round" stroke-miterlimit="10" d="
	M337.946,391.662c2.157,0,4.211-1.438,8.469-4.25c4.861-3.212,20.375-14.125,26.333-19c2.579-2.111,4-3.75,4-7.874
	c0,0,0.167-22.126,0-36.459c-0.166-14.334-20.333-21-38.802-21c-18.468,0-38.635,6.666-38.801,21c-0.167,14.333,0,36.459,0,36.459
	c0,4.124,1.42,5.763,4,7.874c5.958,4.875,21.471,15.788,26.333,19C333.735,390.224,335.79,391.662,337.946,391.662z"/>
<path fill="none" stroke="#FFFFFF" stroke-width="9" stroke-linecap="round" stroke-linejoin="round" stroke-miterlimit="10" d="
	M337.946,433.415h18.802c2.084,0,5.084-0.833,7.875-2.107c5.424-2.479,43.089-24.614,43.089-24.614s21.99-13.128,21.99-37.045
	v-27.654v-28.233c0-23.917-21.99-37.045-21.99-37.045s-37.665-22.136-43.089-24.614c-2.791-1.275-5.791-2.108-7.875-2.108h-18.802
	h-18.801c-2.084,0-5.084,0.833-7.875,2.108c-5.424,2.478-43.089,24.614-43.089,24.614s-21.991,13.128-21.991,37.045v28.233v27.654
	c0,23.917,21.991,37.045,21.991,37.045s37.665,22.136,43.089,24.614c2.791,1.274,5.791,2.107,7.875,2.107H337.946z"/>
<path fill="none" stroke="#FFFFFF" stroke-width="9" stroke-linecap="round" stroke-linejoin="round" stroke-miterlimit="10" d="
	M656.013,324.94c-0.134-5.55,1.36-9.726,2.571-13.603c7.271-22.267,5.443-45.164,4.36-50.503
	c-1.083-5.338-7.789-46.441-8.138-47.768c-0.334-1.271-1.804-1.377-1.804-1.377s-0.966-0.168-2.954,0.27
	c-1.989,0.438-2.323,2.983-3.151,8.046c-1.236,7.973-6.954,36.623-8.111,59.682c-0.645,12.839,1.02,27.609,2.469,35.196
	c0.709,3.714,1.726,8.21,2.82,12.896c2.785-1.886,6.145-2.989,9.762-2.989C654.574,324.79,655.298,324.851,656.013,324.94z"/>
<path fill="none" stroke="#FFFFFF" stroke-width="9" stroke-linecap="round" stroke-linejoin="round" stroke-miterlimit="10" d="
	M655.779,472.773l1.638-0.26c1.638-0.261,2.512-1.646,2.905-3.223c0,0,4.805-25.634,8.956-60.124
	c2.535-21.065-0.799-39.344-4.686-53.261c-2.964,2.331-6.692,3.734-10.757,3.734c-1.229,0-2.426-0.13-3.583-0.372
	c-0.063,9.529-3.798,14.783-5.832,23.9c-4.243,19.022-0.044,37.523,0.722,43.069c0.764,5.546,8.688,44.028,8.999,45.322
	C654.473,472.941,655.779,472.773,655.779,472.773z"/>
<path fill="none" stroke="#FFFFFF" stroke-width="9" stroke-linecap="round" stroke-linejoin="round" stroke-miterlimit="10" d="
	M664.593,355.906c4.056-3.19,6.668-8.131,6.668-13.691c0-8.885-6.653-16.202-15.249-17.275"/>
<path fill="none" stroke="#FFFFFF" stroke-width="9" stroke-linecap="round" stroke-linejoin="round" stroke-miterlimit="10" d="
	M644.076,327.779c-4.625,3.133-7.665,8.429-7.665,14.436c0,8.396,5.938,15.4,13.843,17.054"/>
<line fill="none" stroke="#FFFFFF" stroke-width="9" stroke-linecap="round" stroke-linejoin="round" stroke-miterlimit="10" x1="639.125" y1="352.409" x2="429.703" y2="352.409"/>
<line fill="none" stroke="#FFFFFF" stroke-width="9" stroke-linecap="round" stroke-linejoin="round" stroke-miterlimit="10" x1="429.703" y1="332.566" x2="639.125" y2="332.566"/>
<path fill="none" stroke="#FFFFFF" stroke-width="9" stroke-linecap="round" stroke-linejoin="round" stroke-miterlimit="10" d="
	M19.749,324.94c0.134-5.55-1.361-9.726-2.571-13.603c-7.271-22.267-5.444-45.164-4.361-50.503
	c1.083-5.338,7.789-46.441,8.138-47.768c0.334-1.271,1.804-1.377,1.804-1.377s0.965-0.168,2.954,0.27
	c1.989,0.438,2.323,2.983,3.151,8.046c1.236,7.973,6.954,36.623,8.111,59.682c0.645,12.839-1.019,27.609-2.468,35.196
	c-0.709,3.714-1.726,8.21-2.821,12.896c-2.785-1.886-6.144-2.989-9.761-2.989C21.187,324.79,20.464,324.851,19.749,324.94z"/>
<path fill="none" stroke="#FFFFFF" stroke-width="9" stroke-linecap="round" stroke-linejoin="round" stroke-miterlimit="10" d="
	M19.982,472.773l-1.638-0.26c-1.638-0.261-2.512-1.646-2.905-3.223c0,0-4.805-25.634-8.956-60.124
	c-2.535-21.065,0.799-39.344,4.685-53.261c2.964,2.331,6.693,3.734,10.757,3.734c1.229,0,2.426-0.13,3.583-0.372
	c0.064,9.529,3.798,14.783,5.832,23.9c4.243,19.022,0.044,37.523-0.721,43.069c-0.764,5.546-8.689,44.028-8.999,45.322
	C21.289,472.941,19.982,472.773,19.982,472.773z"/>
<path fill="none" stroke="#FFFFFF" stroke-width="9" stroke-linecap="round" stroke-linejoin="round" stroke-miterlimit="10" d="
	M11.168,355.906c-4.055-3.19-6.668-8.131-6.668-13.691c0-8.885,6.654-16.202,15.249-17.275"/>
<path fill="none" stroke="#FFFFFF" stroke-width="9" stroke-linecap="round" stroke-linejoin="round" stroke-miterlimit="10" d="
	M31.686,327.779c4.625,3.133,7.665,8.429,7.665,14.436c0,8.396-5.938,15.4-13.843,17.054"/>
<line fill="none" stroke="#FFFFFF" stroke-width="9" stroke-linecap="round" stroke-linejoin="round" stroke-miterlimit="10" x1="36.636" y1="352.409" x2="246.19" y2="352.409"/>
<line fill="none" stroke="#FFFFFF" stroke-width="9" stroke-linecap="round" stroke-linejoin="round" stroke-miterlimit="10" x1="246.19" y1="332.566" x2="36.637" y2="332.566"/>
<path fill="none" stroke="#FFFFFF" stroke-width="9" stroke-linecap="round" stroke-linejoin="round" stroke-miterlimit="10" d="
	M153.79,602.153c-4.734-2.9-9.096-3.701-13.057-4.599c-22.91-4.88-41.802-17.947-45.877-21.562
	c-4.075-3.615-36.268-30.035-37.241-31.003c-0.931-0.926-0.286-2.251-0.286-2.251s0.338-0.919,1.715-2.42s3.746-0.512,8.541,1.311
	c7.518,2.931,35.17,12.355,55.699,22.922c11.43,5.883,23.373,14.731,29.209,19.791c2.858,2.477,6.237,5.611,9.741,8.909
	c-3.029,1.463-5.668,3.815-7.482,6.944C154.381,600.834,154.071,601.49,153.79,602.153z"/>
<path fill="none" stroke="#FFFFFF" stroke-width="9" stroke-linecap="round" stroke-linejoin="round" stroke-miterlimit="10" d="
	M281.794,676.109l-1.046,1.287c-1.047,1.287-2.685,1.348-4.246,0.896c0,0-24.585-8.702-56.503-22.413
	c-19.496-8.374-33.635-20.427-43.726-30.771c3.504-1.394,6.589-3.917,8.627-7.432c0.616-1.062,1.104-2.165,1.475-3.286
	c8.277,4.726,14.694,4.13,23.603,6.944c18.584,5.872,32.481,18.785,36.896,22.228c4.414,3.444,33.729,29.604,34.692,30.521
	C282.595,675.063,281.794,676.109,281.794,676.109z"/>
<path fill="none" stroke="#FFFFFF" stroke-width="9" stroke-linecap="round" stroke-linejoin="round" stroke-miterlimit="10" d="
	M176.273,625.109c-4.794,1.907-10.379,1.69-15.189-1.099c-7.686-4.457-10.677-13.884-7.295-21.857"/>
<path fill="none" stroke="#FFFFFF" stroke-width="9" stroke-linecap="round" stroke-linejoin="round" stroke-miterlimit="10" d="
	M162.233,593.251c5.03-2.429,11.137-2.401,16.333,0.611c7.263,4.211,10.344,12.862,7.809,20.529"/>
<line fill="none" stroke="#FFFFFF" stroke-width="9" stroke-linecap="round" stroke-linejoin="round" stroke-miterlimit="10" x1="186.024" y1="601.323" x2="291.144" y2="420.043"/>
<line fill="none" stroke="#FFFFFF" stroke-width="9" stroke-linecap="round" stroke-linejoin="round" stroke-miterlimit="10" x1="273.979" y1="410.089" x2="168.858" y2="591.37"/>
<path fill="none" stroke="#FFFFFF" stroke-width="9" stroke-linecap="round" stroke-linejoin="round" stroke-miterlimit="10" d="
	M522.277,602.153c4.734-2.9,9.096-3.701,13.057-4.599c22.91-4.88,41.803-17.947,45.878-21.562
	c4.074-3.615,36.268-30.035,37.24-31.003c0.932-0.926,0.286-2.251,0.286-2.251s-0.338-0.919-1.716-2.42
	c-1.376-1.501-3.745-0.512-8.54,1.311c-7.518,2.931-35.17,12.355-55.699,22.922c-11.43,5.883-23.373,14.731-29.209,19.791
	c-2.857,2.477-6.236,5.611-9.74,8.909c3.028,1.463,5.668,3.815,7.481,6.944C521.687,600.834,521.996,601.49,522.277,602.153z"/>
<path fill="none" stroke="#FFFFFF" stroke-width="9" stroke-linecap="round" stroke-linejoin="round" stroke-miterlimit="10" d="
	M394.273,676.109l1.046,1.287c1.047,1.287,2.686,1.348,4.246,0.896c0,0,24.585-8.702,56.503-22.413
	c19.496-8.374,33.635-20.427,43.727-30.771c-3.505-1.394-6.59-3.917-8.627-7.432c-0.616-1.062-1.104-2.165-1.476-3.286
	c-8.277,4.726-14.694,4.13-23.603,6.944c-18.584,5.872-32.481,18.785-36.896,22.228c-4.414,3.444-33.729,29.604-34.691,30.521
	C393.473,675.063,394.273,676.109,394.273,676.109z"/>
<path fill="none" stroke="#FFFFFF" stroke-width="9" stroke-linecap="round" stroke-linejoin="round" stroke-miterlimit="10" d="
	M499.794,625.109c4.794,1.907,10.379,1.69,15.189-1.099c7.686-4.457,10.677-13.884,7.295-21.857"/>
<path fill="none" stroke="#FFFFFF" stroke-width="9" stroke-linecap="round" stroke-linejoin="round" stroke-miterlimit="10" d="
	M513.834,593.251c-5.03-2.429-11.137-2.401-16.333,0.611c-7.263,4.211-10.344,12.862-7.81,20.529"/>
<line fill="none" stroke="#FFFFFF" stroke-width="9" stroke-linecap="round" stroke-linejoin="round" stroke-miterlimit="10" x1="490.044" y1="601.323" x2="384.924" y2="420.043"/>
<line fill="none" stroke="#FFFFFF" stroke-width="9" stroke-linecap="round" stroke-linejoin="round" stroke-miterlimit="10" x1="402.089" y1="410.089" x2="507.209" y2="591.37"/>
<path fill="none" stroke="#FFFFFF" stroke-width="9" stroke-linecap="round" stroke-linejoin="round" stroke-miterlimit="10" d="
	M153.79,80.894c-4.734,2.9-9.096,3.701-13.057,4.599c-22.91,4.88-41.802,17.947-45.877,21.562
	c-4.075,3.615-36.268,30.035-37.241,31.003c-0.931,0.926-0.286,2.251-0.286,2.251s0.338,0.919,1.715,2.42s3.746,0.512,8.541-1.311
	c7.518-2.93,35.17-12.355,55.699-22.921c11.43-5.883,23.373-14.732,29.209-19.791c2.858-2.477,6.237-5.612,9.741-8.91
	c-3.029-1.463-5.668-3.815-7.482-6.944C154.381,82.213,154.071,81.557,153.79,80.894z"/>
<path fill="none" stroke="#FFFFFF" stroke-width="9" stroke-linecap="round" stroke-linejoin="round" stroke-miterlimit="10" d="
	M281.794,6.938l-1.046-1.287c-1.047-1.287-2.685-1.347-4.246-0.896c0,0-24.585,8.702-56.503,22.413
	c-19.496,8.374-33.635,20.427-43.726,30.77c3.504,1.394,6.589,3.917,8.627,7.432c0.616,1.063,1.104,2.164,1.475,3.286
	c8.277-4.725,14.694-4.13,23.603-6.944c18.584-5.872,32.481-18.785,36.896-22.229c4.414-3.444,33.729-29.603,34.692-30.52
	C282.595,7.983,281.794,6.938,281.794,6.938z"/>
<path fill="none" stroke="#FFFFFF" stroke-width="9" stroke-linecap="round" stroke-linejoin="round" stroke-miterlimit="10" d="
	M176.273,57.938c-4.794-1.907-10.379-1.69-15.189,1.099c-7.686,4.457-10.677,13.884-7.295,21.857"/>
<path fill="none" stroke="#FFFFFF" stroke-width="9" stroke-linecap="round" stroke-linejoin="round" stroke-miterlimit="10" d="
	M162.233,89.796c5.03,2.429,11.137,2.402,16.333-0.611c7.263-4.211,10.344-12.862,7.809-20.529"/>
<line fill="none" stroke="#FFFFFF" stroke-width="9" stroke-linecap="round" stroke-linejoin="round" stroke-miterlimit="10" x1="186.024" y1="81.724" x2="291.144" y2="263.005"/>
<line fill="none" stroke="#FFFFFF" stroke-width="9" stroke-linecap="round" stroke-linejoin="round" stroke-miterlimit="10" x1="273.979" y1="272.958" x2="168.858" y2="91.678"/>
<path fill="none" stroke="#FFFFFF" stroke-width="9" stroke-linecap="round" stroke-linejoin="round" stroke-miterlimit="10" d="
	M522.277,80.894c4.734,2.9,9.096,3.701,13.057,4.599c22.91,4.88,41.803,17.947,45.878,21.562
	c4.074,3.615,36.268,30.035,37.24,31.003c0.932,0.926,0.286,2.251,0.286,2.251s-0.338,0.919-1.716,2.42
	c-1.376,1.501-3.745,0.512-8.54-1.311c-7.518-2.93-35.17-12.355-55.699-22.921c-11.43-5.883-23.373-14.732-29.209-19.791
	c-2.857-2.477-6.236-5.612-9.74-8.91c3.028-1.463,5.668-3.815,7.481-6.944C521.687,82.213,521.996,81.557,522.277,80.894z"/>
<path fill="none" stroke="#FFFFFF" stroke-width="9" stroke-linecap="round" stroke-linejoin="round" stroke-miterlimit="10" d="
	M394.273,6.938l1.046-1.287c1.047-1.287,2.686-1.347,4.246-0.896c0,0,24.585,8.702,56.503,22.413
	c19.496,8.374,33.635,20.427,43.727,30.77c-3.505,1.394-6.59,3.917-8.627,7.432c-0.616,1.063-1.104,2.164-1.476,3.286
	c-8.277-4.725-14.694-4.13-23.603-6.944c-18.584-5.872-32.481-18.785-36.896-22.229c-4.414-3.444-33.729-29.603-34.691-30.52
	C393.473,7.983,394.273,6.938,394.273,6.938z"/>
<path fill="none" stroke="#FFFFFF" stroke-width="9" stroke-linecap="round" stroke-linejoin="round" stroke-miterlimit="10" d="
	M499.794,57.938c4.794-1.907,10.379-1.69,15.189,1.099c7.686,4.457,10.677,13.884,7.295,21.857"/>
<path fill="none" stroke="#FFFFFF" stroke-width="9" stroke-linecap="round" stroke-linejoin="round" stroke-miterlimit="10" d="
	M513.834,89.796c-5.03,2.429-11.137,2.402-16.333-0.611c-7.263-4.211-10.344-12.862-7.81-20.529"/>
<line fill="none" stroke="#FFFFFF" stroke-width="9" stroke-linecap="round" stroke-linejoin="round" stroke-miterlimit="10" x1="490.044" y1="81.724" x2="384.924" y2="263.005"/>
<line fill="none" stroke="#FFFFFF" stroke-width="9" stroke-linecap="round" stroke-linejoin="round" stroke-miterlimit="10" x1="402.089" y1="272.958" x2="507.209" y2="91.678"/>
</svg>
