<?xml version="1.0" encoding="utf-8"?>
<!-- Generator: Adobe Illustrator 16.0.0, SVG Export Plug-In . SVG Version: 6.00 Build 0)  -->
<!DOCTYPE svg PUBLIC "-//W3C//DTD SVG 1.1//EN" "http://www.w3.org/Graphics/SVG/1.1/DTD/svg11.dtd">
<svg version="1.1" id="レイヤー_1" xmlns="http://www.w3.org/2000/svg" xmlns:xlink="http://www.w3.org/1999/xlink" x="0px"
	 y="0px" width="59.488px" height="19.9px" viewBox="0 0 59.488 19.9" enable-background="new 0 0 59.488 19.9"
	 xml:space="preserve">
<g>
	<defs>
		<rect id="SVGID_1_" y="0" width="59.488" height="19.901"/>
	</defs>
	<clipPath id="SVGID_2_">
		<use xlink:href="#SVGID_1_"  overflow="visible"/>
	</clipPath>
	<path clip-path="url(#SVGID_2_)" fill="#FFFFFF" d="M21.079,13.031c0.654,0.683,1.426,1.22,2.315,1.613
		c0.889,0.393,1.856,0.589,2.904,0.589h5.8v-2.625h-5.717c-0.676,0-1.382-0.124-1.954-0.372c-0.572-0.248-1.009-0.589-1.423-1.023
		c-0.413-0.435-0.737-0.955-0.971-1.561c-0.235-0.606-0.351-1.261-0.351-1.963c0-0.717,0.116-1.371,0.351-1.964
		c0.234-0.592,0.558-1.102,0.971-1.53c0.414-0.426,0.851-0.761,1.423-1.002c0.572-0.241,1.278-0.362,1.954-0.362h3.484V0.206h-3.567
		c-1.048,0-2.015,0.176-2.904,0.527c-0.889,0.352-1.661,0.848-2.315,1.489c-0.655,0.64-1.165,1.415-1.53,2.325
		c-0.365,0.909-0.548,1.915-0.548,3.018c0,1.088,0.183,2.101,0.548,3.038C19.914,11.54,20.424,12.351,21.079,13.031 M33.363,7.492
		c0.393,0.379,0.875,0.675,1.447,0.889c0.57,0.214,1.291,0.348,1.994,0.348h4.312c0.703,0,1.547,0.134,1.926,0.458
		c0.378,0.324,0.568,0.81,0.568,1.457c0,0.593-0.19,1.068-0.568,1.426c-0.379,0.358-1.194,0.538-1.897,0.538h-6.619v2.625h6.894
		c0.786,0,1.472-0.11,2.058-0.331c0.586-0.22,1.07-0.527,1.457-0.92c0.386-0.393,0.675-0.857,0.867-1.396
		c0.193-0.537,0.263-1.123,0.263-1.757c0-1.46-0.424-2.549-1.216-3.265c-0.793-0.717-1.898-1.075-3.429-1.075h-4.208
		c-0.579,0-1.341-0.159-1.678-0.476c-0.338-0.317-0.506-0.765-0.506-1.343c0-0.579,0.138-1.03,0.468-1.354
		c0.331-0.324,0.799-0.486,1.405-0.486h6.538V0.206h-6.482c-0.744,0-1.461,0.107-2.04,0.321c-0.578,0.213-1.063,0.506-1.457,0.878
		c-0.392,0.372-0.662,0.817-0.86,1.333c-0.2,0.517-0.301,1.079-0.301,1.685c0,0.62,0.053,1.192,0.266,1.715
		C32.777,6.662,32.97,7.113,33.363,7.492 M50.552,12.58V0.206h-2.625v15.027h11.562V12.58H50.552z M11.237,0.847
		c-0.152-0.262-0.327-0.468-0.527-0.62C10.51,0.076,10.265,0,9.976,0S9.439,0.076,9.232,0.227c-0.207,0.152-0.386,0.358-0.537,0.62
		L0,15.288h2.997L9.9,3.699l3.349,5.622H8.612l-1.24,2.129h7.11l5.033,8.45h39.973v-2.652h-38.39L11.237,0.847z"/>
</g>
</svg>
