<?xml version="1.0" encoding="utf-8"?>
<!-- Generator: Adobe Illustrator 15.0.0, SVG Export Plug-In . SVG Version: 6.00 Build 0)  -->
<!DOCTYPE svg PUBLIC "-//W3C//DTD SVG 1.1//EN" "http://www.w3.org/Graphics/SVG/1.1/DTD/svg11.dtd">
<svg version="1.1" id="レイヤー_1" xmlns="http://www.w3.org/2000/svg" xmlns:xlink="http://www.w3.org/1999/xlink" x="0px"
	 y="0px" width="148.327px" height="141.489px" viewBox="0 0 148.327 141.489" enable-background="new 0 0 148.327 141.489"
	 xml:space="preserve">
<g>
	<g>
		
			<polyline fill="none" stroke="#0000FA" stroke-width="0.5" stroke-linecap="round" stroke-linejoin="round" stroke-miterlimit="10" points="
			-441.215,60.041 -411.482,47.719 -378.593,79.264 -425.271,99.16 -458.16,67.615 -453.269,65.49 		"/>
		
			<polygon fill="none" stroke="#0000FA" stroke-width="0.5" stroke-linecap="round" stroke-linejoin="round" stroke-miterlimit="10" points="
			-436.184,64.729 -444.437,68.382 -453.269,60.15 -445.016,56.498 		"/>
		
			<polygon fill="none" stroke="#0000FA" stroke-width="0.5" stroke-linecap="round" stroke-linejoin="round" stroke-miterlimit="10" points="
			-439.727,63.573 -444.791,65.853 -450.51,60.523 -445.445,58.243 		"/>
		
			<polyline fill="none" stroke="#0000FA" stroke-width="0.5" stroke-linecap="round" stroke-linejoin="round" stroke-miterlimit="10" points="
			-378.651,82.358 -425.328,102.254 -458.217,70.709 		"/>
		
			<polygon fill="none" stroke="#0000FA" stroke-width="0.5" stroke-linecap="round" stroke-linejoin="round" stroke-miterlimit="10" points="
			-428.525,77.65 -424.188,81.809 -418.034,79.186 -422.371,75.027 		"/>
		
			<polyline fill="none" stroke="#0000FA" stroke-width="0.5" stroke-linecap="round" stroke-linejoin="round" stroke-miterlimit="10" points="
			-418.485,81.193 -424.64,83.816 -428.976,79.657 		"/>
		<g>
			
				<polygon fill="none" stroke="#0000FA" stroke-width="0.5" stroke-linecap="round" stroke-linejoin="round" stroke-miterlimit="10" points="
				-407.957,53.143 -431.823,63.316 -438.711,56.948 -414.845,46.775 			"/>
			
				<polyline fill="none" stroke="#0000FA" stroke-width="0.5" stroke-linecap="round" stroke-linejoin="round" stroke-miterlimit="10" points="
				-431.823,63.316 -431.823,66.428 -407.957,56.433 -407.957,53.143 			"/>
			
				<polyline fill="none" stroke="#0000FA" stroke-width="0.5" stroke-linecap="round" stroke-linejoin="round" stroke-miterlimit="10" points="
				-438.711,56.948 -438.711,60.046 -431.823,66.428 			"/>
			<g>
				
					<line fill="none" stroke="#0000FA" stroke-width="0.5" stroke-linecap="round" stroke-linejoin="round" stroke-miterlimit="10" x1="-434.866" y1="57.349" x2="-434.866" y2="44.646"/>
				
					<line fill="none" stroke="#0000FA" stroke-width="0.5" stroke-linecap="round" stroke-linejoin="round" stroke-miterlimit="10" x1="-432.722" y1="56.451" x2="-432.722" y2="43.749"/>
				
					<line fill="none" stroke="#0000FA" stroke-width="0.5" stroke-linecap="round" stroke-linejoin="round" stroke-miterlimit="10" x1="-430.577" y1="55.554" x2="-430.577" y2="42.852"/>
				
					<line fill="none" stroke="#0000FA" stroke-width="0.5" stroke-linecap="round" stroke-linejoin="round" stroke-miterlimit="10" x1="-428.432" y1="54.656" x2="-428.432" y2="41.954"/>
				
					<line fill="none" stroke="#0000FA" stroke-width="0.5" stroke-linecap="round" stroke-linejoin="round" stroke-miterlimit="10" x1="-426.288" y1="53.759" x2="-426.288" y2="41.057"/>
				
					<line fill="none" stroke="#0000FA" stroke-width="0.5" stroke-linecap="round" stroke-linejoin="round" stroke-miterlimit="10" x1="-424.143" y1="52.861" x2="-424.143" y2="40.159"/>
				
					<line fill="none" stroke="#0000FA" stroke-width="0.5" stroke-linecap="round" stroke-linejoin="round" stroke-miterlimit="10" x1="-421.998" y1="51.964" x2="-421.998" y2="39.262"/>
				
					<line fill="none" stroke="#0000FA" stroke-width="0.5" stroke-linecap="round" stroke-linejoin="round" stroke-miterlimit="10" x1="-419.854" y1="51.066" x2="-419.854" y2="38.364"/>
				
					<line fill="none" stroke="#0000FA" stroke-width="0.5" stroke-linecap="round" stroke-linejoin="round" stroke-miterlimit="10" x1="-417.709" y1="50.169" x2="-417.709" y2="37.467"/>
				
					<line fill="none" stroke="#0000FA" stroke-width="0.5" stroke-linecap="round" stroke-linejoin="round" stroke-miterlimit="10" x1="-415.564" y1="49.271" x2="-415.564" y2="36.569"/>
			</g>
			<g>
				
					<line fill="none" stroke="#0000FA" stroke-width="0.5" stroke-linecap="round" stroke-linejoin="round" stroke-miterlimit="10" x1="-431.659" y1="60.185" x2="-431.659" y2="47.482"/>
				
					<line fill="none" stroke="#0000FA" stroke-width="0.5" stroke-linecap="round" stroke-linejoin="round" stroke-miterlimit="10" x1="-429.514" y1="59.287" x2="-429.514" y2="46.585"/>
				
					<line fill="none" stroke="#0000FA" stroke-width="0.5" stroke-linecap="round" stroke-linejoin="round" stroke-miterlimit="10" x1="-427.37" y1="58.39" x2="-427.37" y2="45.688"/>
				
					<line fill="none" stroke="#0000FA" stroke-width="0.5" stroke-linecap="round" stroke-linejoin="round" stroke-miterlimit="10" x1="-425.225" y1="57.492" x2="-425.225" y2="44.79"/>
				
					<line fill="none" stroke="#0000FA" stroke-width="0.5" stroke-linecap="round" stroke-linejoin="round" stroke-miterlimit="10" x1="-423.08" y1="56.595" x2="-423.08" y2="43.893"/>
				
					<line fill="none" stroke="#0000FA" stroke-width="0.5" stroke-linecap="round" stroke-linejoin="round" stroke-miterlimit="10" x1="-420.936" y1="55.697" x2="-420.936" y2="42.995"/>
				
					<line fill="none" stroke="#0000FA" stroke-width="0.5" stroke-linecap="round" stroke-linejoin="round" stroke-miterlimit="10" x1="-418.791" y1="54.8" x2="-418.791" y2="42.098"/>
				
					<line fill="none" stroke="#0000FA" stroke-width="0.5" stroke-linecap="round" stroke-linejoin="round" stroke-miterlimit="10" x1="-416.646" y1="53.902" x2="-416.646" y2="41.2"/>
				
					<line fill="none" stroke="#0000FA" stroke-width="0.5" stroke-linecap="round" stroke-linejoin="round" stroke-miterlimit="10" x1="-414.501" y1="53.005" x2="-414.501" y2="40.303"/>
				
					<line fill="none" stroke="#0000FA" stroke-width="0.5" stroke-linecap="round" stroke-linejoin="round" stroke-miterlimit="10" x1="-412.356" y1="52.107" x2="-412.356" y2="39.405"/>
			</g>
		</g>
		
			<polyline fill="none" stroke="#0000FA" stroke-width="0.5" stroke-linecap="round" stroke-linejoin="round" stroke-miterlimit="10" points="
			-444.437,68.382 -444.437,77.514 -436.184,73.912 -436.184,64.729 		"/>
		
			<polyline fill="none" stroke="#0000FA" stroke-width="0.5" stroke-linecap="round" stroke-linejoin="round" stroke-miterlimit="10" points="
			-453.269,60.15 -453.269,68.646 -444.437,77.514 		"/>
		
			<polyline fill="none" stroke="#0000FA" stroke-width="0.5" stroke-linecap="round" stroke-linejoin="round" stroke-miterlimit="10" points="
			-416.751,63.803 -416.751,66.296 -406.356,76.165 -390.939,69.541 -390.939,67.582 -406.082,74.037 -416.751,63.803 
			-401.608,57.349 		"/>
		<g>
			
				<polygon fill="none" stroke="#0000FA" stroke-width="0.5" stroke-linecap="round" stroke-linejoin="round" stroke-miterlimit="10" points="
				-414.062,88.569 -423.928,92.939 -426.729,89.744 -416.862,85.532 			"/>
			
				<line fill="none" stroke="#0000FA" stroke-width="0.5" stroke-linecap="round" stroke-linejoin="round" stroke-miterlimit="10" x1="-423.928" y1="92.939" x2="-423.928" y2="95.237"/>
			
				<line fill="none" stroke="#0000FA" stroke-width="0.5" stroke-linecap="round" stroke-linejoin="round" stroke-miterlimit="10" x1="-414.062" y1="88.569" x2="-414.062" y2="91.534"/>
			
				<line fill="none" stroke="#0000FA" stroke-width="0.5" stroke-linecap="round" stroke-linejoin="round" stroke-miterlimit="10" x1="-426.729" y1="93.384" x2="-426.729" y2="89.744"/>
		</g>
		<g>
			
				<polygon fill="none" stroke="#0000FA" stroke-width="0.5" stroke-linecap="round" stroke-linejoin="round" stroke-miterlimit="10" points="
				-385.555,75.699 -395.421,80.069 -398.222,77.588 -388.222,73.325 			"/>
			
				<line fill="none" stroke="#0000FA" stroke-width="0.5" stroke-linecap="round" stroke-linejoin="round" stroke-miterlimit="10" x1="-395.421" y1="80.069" x2="-395.421" y2="82.721"/>
			
				<line fill="none" stroke="#0000FA" stroke-width="0.5" stroke-linecap="round" stroke-linejoin="round" stroke-miterlimit="10" x1="-385.555" y1="75.699" x2="-385.555" y2="78.664"/>
			
				<line fill="none" stroke="#0000FA" stroke-width="0.5" stroke-linecap="round" stroke-linejoin="round" stroke-miterlimit="10" x1="-398.222" y1="77.588" x2="-398.222" y2="80.513"/>
		</g>
		<g>
			
				<polygon fill="none" stroke="#0000FA" stroke-width="0.5" stroke-linecap="round" stroke-linejoin="round" stroke-miterlimit="10" points="
				-397.603,81.415 -411.904,87.737 -414.704,84.617 -400.403,78.553 			"/>
			
				<line fill="none" stroke="#0000FA" stroke-width="0.5" stroke-linecap="round" stroke-linejoin="round" stroke-miterlimit="10" x1="-411.904" y1="87.737" x2="-411.904" y2="90.034"/>
			
				<line fill="none" stroke="#0000FA" stroke-width="0.5" stroke-linecap="round" stroke-linejoin="round" stroke-miterlimit="10" x1="-397.603" y1="81.415" x2="-397.603" y2="84.557"/>
			
				<line fill="none" stroke="#0000FA" stroke-width="0.5" stroke-linecap="round" stroke-linejoin="round" stroke-miterlimit="10" x1="-414.704" y1="84.617" x2="-414.704" y2="87.872"/>
		</g>
	</g>
	<rect x="-457.637" y="7.895" opacity="0.6" fill="#0000FA" width="7.031" height="7.031"/>
	<rect x="-382.653" y="126.91" opacity="0.6" fill="#0000FA" width="7.031" height="7.031"/>
	
		<polyline fill="none" stroke="#0000FA" stroke-width="0.5" stroke-linecap="round" stroke-linejoin="round" stroke-miterlimit="10" points="
		-490.438,70.7 -459.755,129.942 -376.651,130.064 	"/>
	
		<polyline fill="none" stroke="#0000FA" stroke-width="0.5" stroke-linecap="round" stroke-linejoin="round" stroke-miterlimit="10" points="
		-456.843,11.126 -373.81,11.126 -342.61,70.7 	"/>
	
		<polygon fill="none" stroke="#0000FA" stroke-width="0.5" stroke-linecap="round" stroke-linejoin="round" stroke-miterlimit="10" points="
		-456.82,13.646 -376.651,13.646 -346.256,70.709 -376.648,127.843 -456.573,127.843 -486.965,70.709 	"/>
	<circle fill="none" stroke="#0000FA" stroke-width="0.5" stroke-miterlimit="10" cx="-416.751" cy="70.745" r="70.495"/>
</g>
<g>
	<g>
		<g>
			
				<polygon fill="none" stroke="#0000FA" stroke-width="0.5" stroke-linecap="round" stroke-linejoin="round" stroke-miterlimit="10" points="
				-160.428,58.041 -184.788,58.041 -182.747,46.75 -162.469,46.75 			"/>
			
				<rect x="-184.788" y="58.041" fill="none" stroke="#0000FA" stroke-width="0.5" stroke-linecap="round" stroke-linejoin="round" stroke-miterlimit="10" width="24.36" height="4.393"/>
			
				<polyline fill="none" stroke="#0000FA" stroke-width="0.5" stroke-linecap="round" stroke-linejoin="round" stroke-miterlimit="10" points="
				-182.747,46.75 -184.788,49.247 -184.788,62.433 			"/>
			
				<polyline fill="none" stroke="#0000FA" stroke-width="0.5" stroke-linecap="round" stroke-linejoin="round" stroke-miterlimit="10" points="
				-162.469,46.75 -160.428,49.247 -160.428,62.433 			"/>
		</g>
		
			<path fill="none" stroke="#0000FA" stroke-width="0.5" stroke-linecap="round" stroke-linejoin="round" stroke-miterlimit="10" d="
			M-169.763,70.47v-8.037h-5.69v8.037C-175.453,70.47-173.06,71.428-169.763,70.47z"/>
		
			<polyline fill="none" stroke="#0000FA" stroke-width="0.5" stroke-linecap="round" stroke-linejoin="round" stroke-miterlimit="10" points="
			-170.838,70.896 -170.838,101.912 -174.377,101.912 -174.377,70.896 		"/>
		
			<path fill="none" stroke="#0000FA" stroke-width="0.5" stroke-linecap="round" stroke-linejoin="round" stroke-miterlimit="10" d="
			M-184.788,52.396c0,0-6.524,5.874-1.527,19.06c4.997,13.186,11.937,16.243,11.937,27.208"/>
		
			<path fill="none" stroke="#0000FA" stroke-width="0.5" stroke-linecap="round" stroke-linejoin="round" stroke-miterlimit="10" d="
			M-160.225,33.846c3.613-1.005,7.649-0.087,10.491,2.755c2.857,2.858,3.77,6.926,2.735,10.556"/>
		
			<path fill="none" stroke="#0000FA" stroke-width="0.5" stroke-linecap="round" stroke-linejoin="round" stroke-miterlimit="10" d="
			M-159.94,37.527c2.534-0.705,5.364-0.061,7.356,1.931c2.004,2.004,2.644,4.856,1.918,7.401"/>
		
			<path fill="none" stroke="#0000FA" stroke-width="0.5" stroke-linecap="round" stroke-linejoin="round" stroke-miterlimit="10" d="
			M-160.005,41.698c1.415-0.394,2.996-0.034,4.109,1.079c1.12,1.12,1.478,2.713,1.072,4.136"/>
	</g>
	<rect x="-212.293" y="7.895" opacity="0.6" fill="#0000FA" width="7.031" height="7.031"/>
	<rect x="-137.31" y="126.91" opacity="0.6" fill="#0000FA" width="7.031" height="7.031"/>
	
		<polyline fill="none" stroke="#0000FA" stroke-width="0.5" stroke-linecap="round" stroke-linejoin="round" stroke-miterlimit="10" points="
		-245.094,70.7 -214.411,129.942 -131.307,130.064 	"/>
	
		<polyline fill="none" stroke="#0000FA" stroke-width="0.5" stroke-linecap="round" stroke-linejoin="round" stroke-miterlimit="10" points="
		-211.499,11.126 -128.466,11.126 -97.267,70.7 	"/>
	
		<polygon fill="none" stroke="#0000FA" stroke-width="0.5" stroke-linecap="round" stroke-linejoin="round" stroke-miterlimit="10" points="
		-211.477,13.646 -131.307,13.646 -100.912,70.709 -131.305,127.843 -211.229,127.843 -241.621,70.709 	"/>
	<circle fill="none" stroke="#0000FA" stroke-width="0.5" stroke-miterlimit="10" cx="-171.407" cy="70.745" r="70.495"/>
</g>
<g>
	<g>
		
			<path fill="none" stroke="#0000FA" stroke-width="0.5" stroke-linecap="round" stroke-linejoin="round" stroke-miterlimit="10" d="
			M59.291,92.492h-9.57V67.687c0-13.478,10.964-24.444,24.443-24.444c13.479,0,24.443,10.966,24.443,24.444v24.806h-9.57"/>
		
			<path fill="none" stroke="#0000FA" stroke-width="0.5" stroke-linecap="round" stroke-linejoin="round" stroke-miterlimit="10" d="
			M61.833,88.418h-8.039V67.687c0-11.25,9.121-20.37,20.37-20.37s20.37,9.12,20.37,20.37v20.731h-8.04"/>
		
			<path fill="none" stroke="#0000FA" stroke-width="0.5" stroke-linecap="round" stroke-linejoin="round" stroke-miterlimit="10" d="
			M91.564,96.541L78.646,75.846h3.425v-8.048c0-4.367-3.54-7.907-7.907-7.907s-7.907,3.54-7.907,7.907v8.048h3.424L56.764,96.541"/>
		
			<line fill="none" stroke="#0000FA" stroke-width="0.5" stroke-linecap="round" stroke-linejoin="round" stroke-miterlimit="10" x1="69.681" y1="75.846" x2="78.646" y2="75.846"/>
		
			<line fill="none" stroke="#0000FA" stroke-width="0.5" stroke-linecap="round" stroke-linejoin="round" stroke-miterlimit="10" x1="74.164" y1="76.179" x2="74.164" y2="80.253"/>
		
			<line fill="none" stroke="#0000FA" stroke-width="0.5" stroke-linecap="round" stroke-linejoin="round" stroke-miterlimit="10" x1="74.164" y1="84.475" x2="74.164" y2="88.549"/>
		
			<line fill="none" stroke="#0000FA" stroke-width="0.5" stroke-linecap="round" stroke-linejoin="round" stroke-miterlimit="10" x1="74.164" y1="92.771" x2="74.164" y2="96.846"/>
	</g>
	<rect x="33.051" y="7.895" opacity="0.6" fill="#0000FA" width="7.031" height="7.031"/>
	<rect x="108.035" y="126.91" opacity="0.6" fill="#0000FA" width="7.03" height="7.031"/>
	
		<polyline fill="none" stroke="#0000FA" stroke-width="0.5" stroke-linecap="round" stroke-linejoin="round" stroke-miterlimit="10" points="
		0.25,70.7 30.933,129.942 114.037,130.064 	"/>
	
		<polyline fill="none" stroke="#0000FA" stroke-width="0.5" stroke-linecap="round" stroke-linejoin="round" stroke-miterlimit="10" points="
		33.846,11.126 116.878,11.126 148.077,70.7 	"/>
	
		<polygon fill="none" stroke="#0000FA" stroke-width="0.5" stroke-linecap="round" stroke-linejoin="round" stroke-miterlimit="10" points="
		33.868,13.646 114.037,13.646 144.432,70.709 114.04,127.843 34.115,127.843 3.723,70.709 	"/>
	<circle fill="none" stroke="#0000FA" stroke-width="0.5" stroke-miterlimit="10" cx="73.937" cy="70.745" r="70.495"/>
</g>
</svg>
