<?xml version="1.0" encoding="utf-8"?>
<!-- Generator: Adobe Illustrator 15.0.0, SVG Export Plug-In . SVG Version: 6.00 Build 0)  -->
<!DOCTYPE svg PUBLIC "-//W3C//DTD SVG 1.1//EN" "http://www.w3.org/Graphics/SVG/1.1/DTD/svg11.dtd">
<svg version="1.1" id="レイヤー_1" xmlns="http://www.w3.org/2000/svg" xmlns:xlink="http://www.w3.org/1999/xlink" x="0px"
	 y="0px" width="148.327px" height="141.489px" viewBox="0 0 148.327 141.489" enable-background="new 0 0 148.327 141.489"
	 xml:space="preserve">
<g>
	<g>
		
			<polyline fill="none" stroke="#0000FA" stroke-width="0.5" stroke-linecap="round" stroke-linejoin="round" stroke-miterlimit="10" points="
			-195.871,60.041 -166.139,47.719 -133.249,79.264 -179.927,99.16 -212.816,67.615 -207.925,65.49 		"/>
		
			<polygon fill="none" stroke="#0000FA" stroke-width="0.5" stroke-linecap="round" stroke-linejoin="round" stroke-miterlimit="10" points="
			-190.84,64.729 -199.093,68.382 -207.925,60.15 -199.672,56.498 		"/>
		
			<polygon fill="none" stroke="#0000FA" stroke-width="0.5" stroke-linecap="round" stroke-linejoin="round" stroke-miterlimit="10" points="
			-194.383,63.573 -199.447,65.853 -205.167,60.523 -200.102,58.243 		"/>
		
			<polyline fill="none" stroke="#0000FA" stroke-width="0.5" stroke-linecap="round" stroke-linejoin="round" stroke-miterlimit="10" points="
			-133.307,82.358 -179.984,102.254 -212.874,70.709 		"/>
		
			<polygon fill="none" stroke="#0000FA" stroke-width="0.5" stroke-linecap="round" stroke-linejoin="round" stroke-miterlimit="10" points="
			-183.181,77.65 -178.845,81.809 -172.69,79.186 -177.027,75.027 		"/>
		
			<polyline fill="none" stroke="#0000FA" stroke-width="0.5" stroke-linecap="round" stroke-linejoin="round" stroke-miterlimit="10" points="
			-173.142,81.193 -179.296,83.816 -183.632,79.657 		"/>
		<g>
			
				<polygon fill="none" stroke="#0000FA" stroke-width="0.5" stroke-linecap="round" stroke-linejoin="round" stroke-miterlimit="10" points="
				-162.613,53.143 -186.479,63.316 -193.368,56.948 -169.501,46.775 			"/>
			
				<polyline fill="none" stroke="#0000FA" stroke-width="0.5" stroke-linecap="round" stroke-linejoin="round" stroke-miterlimit="10" points="
				-186.479,63.316 -186.479,66.428 -162.613,56.433 -162.613,53.143 			"/>
			
				<polyline fill="none" stroke="#0000FA" stroke-width="0.5" stroke-linecap="round" stroke-linejoin="round" stroke-miterlimit="10" points="
				-193.368,56.948 -193.368,60.046 -186.479,66.428 			"/>
			<g>
				
					<line fill="none" stroke="#0000FA" stroke-width="0.5" stroke-linecap="round" stroke-linejoin="round" stroke-miterlimit="10" x1="-189.522" y1="57.349" x2="-189.522" y2="44.646"/>
				
					<line fill="none" stroke="#0000FA" stroke-width="0.5" stroke-linecap="round" stroke-linejoin="round" stroke-miterlimit="10" x1="-187.378" y1="56.451" x2="-187.378" y2="43.749"/>
				
					<line fill="none" stroke="#0000FA" stroke-width="0.5" stroke-linecap="round" stroke-linejoin="round" stroke-miterlimit="10" x1="-185.233" y1="55.554" x2="-185.233" y2="42.852"/>
				
					<line fill="none" stroke="#0000FA" stroke-width="0.5" stroke-linecap="round" stroke-linejoin="round" stroke-miterlimit="10" x1="-183.088" y1="54.656" x2="-183.088" y2="41.954"/>
				
					<line fill="none" stroke="#0000FA" stroke-width="0.5" stroke-linecap="round" stroke-linejoin="round" stroke-miterlimit="10" x1="-180.944" y1="53.759" x2="-180.944" y2="41.057"/>
				
					<line fill="none" stroke="#0000FA" stroke-width="0.5" stroke-linecap="round" stroke-linejoin="round" stroke-miterlimit="10" x1="-178.799" y1="52.861" x2="-178.799" y2="40.159"/>
				
					<line fill="none" stroke="#0000FA" stroke-width="0.5" stroke-linecap="round" stroke-linejoin="round" stroke-miterlimit="10" x1="-176.654" y1="51.964" x2="-176.654" y2="39.262"/>
				
					<line fill="none" stroke="#0000FA" stroke-width="0.5" stroke-linecap="round" stroke-linejoin="round" stroke-miterlimit="10" x1="-174.51" y1="51.066" x2="-174.51" y2="38.364"/>
				
					<line fill="none" stroke="#0000FA" stroke-width="0.5" stroke-linecap="round" stroke-linejoin="round" stroke-miterlimit="10" x1="-172.365" y1="50.169" x2="-172.365" y2="37.467"/>
				
					<line fill="none" stroke="#0000FA" stroke-width="0.5" stroke-linecap="round" stroke-linejoin="round" stroke-miterlimit="10" x1="-170.22" y1="49.271" x2="-170.22" y2="36.569"/>
			</g>
			<g>
				
					<line fill="none" stroke="#0000FA" stroke-width="0.5" stroke-linecap="round" stroke-linejoin="round" stroke-miterlimit="10" x1="-186.315" y1="60.185" x2="-186.315" y2="47.482"/>
				
					<line fill="none" stroke="#0000FA" stroke-width="0.5" stroke-linecap="round" stroke-linejoin="round" stroke-miterlimit="10" x1="-184.17" y1="59.287" x2="-184.17" y2="46.585"/>
				
					<line fill="none" stroke="#0000FA" stroke-width="0.5" stroke-linecap="round" stroke-linejoin="round" stroke-miterlimit="10" x1="-182.026" y1="58.39" x2="-182.026" y2="45.688"/>
				
					<line fill="none" stroke="#0000FA" stroke-width="0.5" stroke-linecap="round" stroke-linejoin="round" stroke-miterlimit="10" x1="-179.881" y1="57.492" x2="-179.881" y2="44.79"/>
				
					<line fill="none" stroke="#0000FA" stroke-width="0.5" stroke-linecap="round" stroke-linejoin="round" stroke-miterlimit="10" x1="-177.736" y1="56.595" x2="-177.736" y2="43.893"/>
				
					<line fill="none" stroke="#0000FA" stroke-width="0.5" stroke-linecap="round" stroke-linejoin="round" stroke-miterlimit="10" x1="-175.592" y1="55.697" x2="-175.592" y2="42.995"/>
				
					<line fill="none" stroke="#0000FA" stroke-width="0.5" stroke-linecap="round" stroke-linejoin="round" stroke-miterlimit="10" x1="-173.447" y1="54.8" x2="-173.447" y2="42.098"/>
				
					<line fill="none" stroke="#0000FA" stroke-width="0.5" stroke-linecap="round" stroke-linejoin="round" stroke-miterlimit="10" x1="-171.302" y1="53.902" x2="-171.302" y2="41.2"/>
				
					<line fill="none" stroke="#0000FA" stroke-width="0.5" stroke-linecap="round" stroke-linejoin="round" stroke-miterlimit="10" x1="-169.158" y1="53.005" x2="-169.158" y2="40.303"/>
				
					<line fill="none" stroke="#0000FA" stroke-width="0.5" stroke-linecap="round" stroke-linejoin="round" stroke-miterlimit="10" x1="-167.013" y1="52.107" x2="-167.013" y2="39.405"/>
			</g>
		</g>
		
			<polyline fill="none" stroke="#0000FA" stroke-width="0.5" stroke-linecap="round" stroke-linejoin="round" stroke-miterlimit="10" points="
			-199.093,68.382 -199.093,77.514 -190.84,73.912 -190.84,64.729 		"/>
		
			<polyline fill="none" stroke="#0000FA" stroke-width="0.5" stroke-linecap="round" stroke-linejoin="round" stroke-miterlimit="10" points="
			-207.925,60.15 -207.925,68.646 -199.093,77.514 		"/>
		
			<polyline fill="none" stroke="#0000FA" stroke-width="0.5" stroke-linecap="round" stroke-linejoin="round" stroke-miterlimit="10" points="
			-171.407,63.803 -171.407,66.296 -161.012,76.165 -145.595,69.541 -145.595,67.582 -160.738,74.037 -171.407,63.803 
			-156.265,57.349 		"/>
		<g>
			
				<polygon fill="none" stroke="#0000FA" stroke-width="0.5" stroke-linecap="round" stroke-linejoin="round" stroke-miterlimit="10" points="
				-168.718,88.569 -178.584,92.939 -181.385,89.744 -171.518,85.532 			"/>
			
				<line fill="none" stroke="#0000FA" stroke-width="0.5" stroke-linecap="round" stroke-linejoin="round" stroke-miterlimit="10" x1="-178.584" y1="92.939" x2="-178.584" y2="95.237"/>
			
				<line fill="none" stroke="#0000FA" stroke-width="0.5" stroke-linecap="round" stroke-linejoin="round" stroke-miterlimit="10" x1="-168.718" y1="88.569" x2="-168.718" y2="91.534"/>
			
				<line fill="none" stroke="#0000FA" stroke-width="0.5" stroke-linecap="round" stroke-linejoin="round" stroke-miterlimit="10" x1="-181.385" y1="93.384" x2="-181.385" y2="89.744"/>
		</g>
		<g>
			
				<polygon fill="none" stroke="#0000FA" stroke-width="0.5" stroke-linecap="round" stroke-linejoin="round" stroke-miterlimit="10" points="
				-140.211,75.699 -150.078,80.069 -152.878,77.588 -142.878,73.325 			"/>
			
				<line fill="none" stroke="#0000FA" stroke-width="0.5" stroke-linecap="round" stroke-linejoin="round" stroke-miterlimit="10" x1="-150.078" y1="80.069" x2="-150.078" y2="82.721"/>
			
				<line fill="none" stroke="#0000FA" stroke-width="0.5" stroke-linecap="round" stroke-linejoin="round" stroke-miterlimit="10" x1="-140.211" y1="75.699" x2="-140.211" y2="78.664"/>
			
				<line fill="none" stroke="#0000FA" stroke-width="0.5" stroke-linecap="round" stroke-linejoin="round" stroke-miterlimit="10" x1="-152.878" y1="77.588" x2="-152.878" y2="80.513"/>
		</g>
		<g>
			
				<polygon fill="none" stroke="#0000FA" stroke-width="0.5" stroke-linecap="round" stroke-linejoin="round" stroke-miterlimit="10" points="
				-152.259,81.415 -166.56,87.737 -169.36,84.617 -155.059,78.553 			"/>
			
				<line fill="none" stroke="#0000FA" stroke-width="0.5" stroke-linecap="round" stroke-linejoin="round" stroke-miterlimit="10" x1="-166.56" y1="87.737" x2="-166.56" y2="90.034"/>
			
				<line fill="none" stroke="#0000FA" stroke-width="0.5" stroke-linecap="round" stroke-linejoin="round" stroke-miterlimit="10" x1="-152.259" y1="81.415" x2="-152.259" y2="84.557"/>
			
				<line fill="none" stroke="#0000FA" stroke-width="0.5" stroke-linecap="round" stroke-linejoin="round" stroke-miterlimit="10" x1="-169.36" y1="84.617" x2="-169.36" y2="87.872"/>
		</g>
	</g>
	<rect x="-212.293" y="7.895" opacity="0.6" fill="#0000FA" width="7.031" height="7.031"/>
	<rect x="-137.31" y="126.91" opacity="0.6" fill="#0000FA" width="7.031" height="7.031"/>
	
		<polyline fill="none" stroke="#0000FA" stroke-width="0.5" stroke-linecap="round" stroke-linejoin="round" stroke-miterlimit="10" points="
		-245.094,70.7 -214.412,129.942 -131.307,130.064 	"/>
	
		<polyline fill="none" stroke="#0000FA" stroke-width="0.5" stroke-linecap="round" stroke-linejoin="round" stroke-miterlimit="10" points="
		-211.499,11.126 -128.466,11.126 -97.267,70.7 	"/>
	
		<polygon fill="none" stroke="#0000FA" stroke-width="0.5" stroke-linecap="round" stroke-linejoin="round" stroke-miterlimit="10" points="
		-211.477,13.646 -131.307,13.646 -100.913,70.709 -131.305,127.843 -211.229,127.843 -241.621,70.709 	"/>
	<circle fill="none" stroke="#0000FA" stroke-width="0.5" stroke-miterlimit="10" cx="-171.407" cy="70.745" r="70.495"/>
</g>
<g>
	<g>
		<g>
			
				<polygon fill="none" stroke="#0000FA" stroke-width="0.5" stroke-linecap="round" stroke-linejoin="round" stroke-miterlimit="10" points="
				84.916,58.041 60.556,58.041 62.597,46.75 82.875,46.75 			"/>
			
				<rect x="60.556" y="58.041" fill="none" stroke="#0000FA" stroke-width="0.5" stroke-linecap="round" stroke-linejoin="round" stroke-miterlimit="10" width="24.36" height="4.393"/>
			
				<polyline fill="none" stroke="#0000FA" stroke-width="0.5" stroke-linecap="round" stroke-linejoin="round" stroke-miterlimit="10" points="
				62.597,46.75 60.556,49.247 60.556,62.433 			"/>
			
				<polyline fill="none" stroke="#0000FA" stroke-width="0.5" stroke-linecap="round" stroke-linejoin="round" stroke-miterlimit="10" points="
				82.875,46.75 84.916,49.247 84.916,62.433 			"/>
		</g>
		
			<path fill="none" stroke="#0000FA" stroke-width="0.5" stroke-linecap="round" stroke-linejoin="round" stroke-miterlimit="10" d="
			M75.581,70.47v-8.037h-5.69v8.037C69.891,70.47,72.284,71.428,75.581,70.47z"/>
		
			<polyline fill="none" stroke="#0000FA" stroke-width="0.5" stroke-linecap="round" stroke-linejoin="round" stroke-miterlimit="10" points="
			74.506,70.896 74.506,101.912 70.966,101.912 70.966,70.896 		"/>
		
			<path fill="none" stroke="#0000FA" stroke-width="0.5" stroke-linecap="round" stroke-linejoin="round" stroke-miterlimit="10" d="
			M60.556,52.396c0,0-6.524,5.874-1.527,19.06c4.997,13.186,11.937,16.243,11.937,27.208"/>
		
			<path fill="none" stroke="#0000FA" stroke-width="0.5" stroke-linecap="round" stroke-linejoin="round" stroke-miterlimit="10" d="
			M85.119,33.846c3.613-1.005,7.649-0.087,10.491,2.755c2.857,2.858,3.77,6.926,2.735,10.556"/>
		
			<path fill="none" stroke="#0000FA" stroke-width="0.5" stroke-linecap="round" stroke-linejoin="round" stroke-miterlimit="10" d="
			M85.403,37.527c2.534-0.705,5.364-0.061,7.356,1.931c2.004,2.004,2.644,4.856,1.918,7.401"/>
		
			<path fill="none" stroke="#0000FA" stroke-width="0.5" stroke-linecap="round" stroke-linejoin="round" stroke-miterlimit="10" d="
			M85.339,41.698c1.415-0.394,2.996-0.034,4.109,1.079c1.12,1.12,1.478,2.713,1.072,4.136"/>
	</g>
	<rect x="33.051" y="7.895" opacity="0.6" fill="#0000FA" width="7.031" height="7.031"/>
	<rect x="108.034" y="126.91" opacity="0.6" fill="#0000FA" width="7.031" height="7.031"/>
	
		<polyline fill="none" stroke="#0000FA" stroke-width="0.5" stroke-linecap="round" stroke-linejoin="round" stroke-miterlimit="10" points="
		0.25,70.7 30.933,129.942 114.037,130.064 	"/>
	
		<polyline fill="none" stroke="#0000FA" stroke-width="0.5" stroke-linecap="round" stroke-linejoin="round" stroke-miterlimit="10" points="
		33.845,11.126 116.878,11.126 148.077,70.7 	"/>
	
		<polygon fill="none" stroke="#0000FA" stroke-width="0.5" stroke-linecap="round" stroke-linejoin="round" stroke-miterlimit="10" points="
		33.867,13.646 114.037,13.646 144.432,70.709 114.039,127.843 34.115,127.843 3.723,70.709 	"/>
	<circle fill="none" stroke="#0000FA" stroke-width="0.5" stroke-miterlimit="10" cx="73.937" cy="70.745" r="70.495"/>
</g>
<g>
	<g>
		
			<path fill="none" stroke="#0000FA" stroke-width="0.5" stroke-linecap="round" stroke-linejoin="round" stroke-miterlimit="10" d="
			M304.635,92.492h-9.57V67.687c0-13.478,10.964-24.444,24.443-24.444c13.479,0,24.443,10.966,24.443,24.444v24.806h-9.57"/>
		
			<path fill="none" stroke="#0000FA" stroke-width="0.5" stroke-linecap="round" stroke-linejoin="round" stroke-miterlimit="10" d="
			M307.177,88.418h-8.039V67.687c0-11.25,9.121-20.37,20.37-20.37s20.37,9.12,20.37,20.37v20.731h-8.04"/>
		
			<path fill="none" stroke="#0000FA" stroke-width="0.5" stroke-linecap="round" stroke-linejoin="round" stroke-miterlimit="10" d="
			M336.908,96.541L323.99,75.846h3.425v-8.048c0-4.367-3.54-7.907-7.907-7.907s-7.907,3.54-7.907,7.907v8.048h3.424l-12.917,20.695"
			/>
		
			<line fill="none" stroke="#0000FA" stroke-width="0.5" stroke-linecap="round" stroke-linejoin="round" stroke-miterlimit="10" x1="315.024" y1="75.846" x2="323.99" y2="75.846"/>
		
			<line fill="none" stroke="#0000FA" stroke-width="0.5" stroke-linecap="round" stroke-linejoin="round" stroke-miterlimit="10" x1="319.508" y1="76.179" x2="319.508" y2="80.253"/>
		
			<line fill="none" stroke="#0000FA" stroke-width="0.5" stroke-linecap="round" stroke-linejoin="round" stroke-miterlimit="10" x1="319.508" y1="84.475" x2="319.508" y2="88.549"/>
		
			<line fill="none" stroke="#0000FA" stroke-width="0.5" stroke-linecap="round" stroke-linejoin="round" stroke-miterlimit="10" x1="319.508" y1="92.771" x2="319.508" y2="96.846"/>
	</g>
	<rect x="278.395" y="7.895" opacity="0.6" fill="#0000FA" width="7.031" height="7.031"/>
	<rect x="353.379" y="126.91" opacity="0.6" fill="#0000FA" width="7.03" height="7.031"/>
	
		<polyline fill="none" stroke="#0000FA" stroke-width="0.5" stroke-linecap="round" stroke-linejoin="round" stroke-miterlimit="10" points="
		245.594,70.7 276.276,129.942 359.381,130.064 	"/>
	
		<polyline fill="none" stroke="#0000FA" stroke-width="0.5" stroke-linecap="round" stroke-linejoin="round" stroke-miterlimit="10" points="
		279.189,11.126 362.222,11.126 393.421,70.7 	"/>
	
		<polygon fill="none" stroke="#0000FA" stroke-width="0.5" stroke-linecap="round" stroke-linejoin="round" stroke-miterlimit="10" points="
		279.212,13.646 359.381,13.646 389.775,70.709 359.384,127.843 279.459,127.843 249.066,70.709 	"/>
	<circle fill="none" stroke="#0000FA" stroke-width="0.5" stroke-miterlimit="10" cx="319.281" cy="70.745" r="70.495"/>
</g>
</svg>
