<?xml version="1.0" encoding="utf-8"?>
<!-- Generator: Adobe Illustrator 15.0.0, SVG Export Plug-In . SVG Version: 6.00 Build 0)  -->
<!DOCTYPE svg PUBLIC "-//W3C//DTD SVG 1.1//EN" "http://www.w3.org/Graphics/SVG/1.1/DTD/svg11.dtd">
<svg version="1.1" id="レイヤー_1" xmlns="http://www.w3.org/2000/svg" xmlns:xlink="http://www.w3.org/1999/xlink" x="0px"
	 y="0px" width="148.328px" height="141.489px" viewBox="0 0 148.328 141.489" enable-background="new 0 0 148.328 141.489"
	 xml:space="preserve">
<g>
	<g>
		
			<polyline fill="none" stroke="#0000FA" stroke-width="0.5" stroke-linecap="round" stroke-linejoin="round" stroke-miterlimit="10" points="
			49.473,60.041 79.206,47.719 112.095,79.264 65.417,99.16 32.528,67.615 37.419,65.49 		"/>
		
			<polygon fill="none" stroke="#0000FA" stroke-width="0.5" stroke-linecap="round" stroke-linejoin="round" stroke-miterlimit="10" points="
			54.504,64.729 46.251,68.382 37.419,60.15 45.672,56.498 		"/>
		
			<polygon fill="none" stroke="#0000FA" stroke-width="0.5" stroke-linecap="round" stroke-linejoin="round" stroke-miterlimit="10" points="
			50.961,63.573 45.897,65.853 40.178,60.523 45.243,58.243 		"/>
		
			<polyline fill="none" stroke="#0000FA" stroke-width="0.5" stroke-linecap="round" stroke-linejoin="round" stroke-miterlimit="10" points="
			112.037,82.358 65.36,102.254 32.471,70.709 		"/>
		
			<polygon fill="none" stroke="#0000FA" stroke-width="0.5" stroke-linecap="round" stroke-linejoin="round" stroke-miterlimit="10" points="
			62.163,77.65 66.5,81.809 72.654,79.186 68.317,75.027 		"/>
		
			<polyline fill="none" stroke="#0000FA" stroke-width="0.5" stroke-linecap="round" stroke-linejoin="round" stroke-miterlimit="10" points="
			72.203,81.193 66.048,83.816 61.712,79.657 		"/>
		<g>
			
				<polygon fill="none" stroke="#0000FA" stroke-width="0.5" stroke-linecap="round" stroke-linejoin="round" stroke-miterlimit="10" points="
				82.731,53.143 58.865,63.316 51.977,56.948 75.843,46.775 			"/>
			
				<polyline fill="none" stroke="#0000FA" stroke-width="0.5" stroke-linecap="round" stroke-linejoin="round" stroke-miterlimit="10" points="
				58.865,63.316 58.865,66.428 82.731,56.433 82.731,53.143 			"/>
			
				<polyline fill="none" stroke="#0000FA" stroke-width="0.5" stroke-linecap="round" stroke-linejoin="round" stroke-miterlimit="10" points="
				51.977,56.948 51.977,60.046 58.865,66.428 			"/>
			<g>
				
					<line fill="none" stroke="#0000FA" stroke-width="0.5" stroke-linecap="round" stroke-linejoin="round" stroke-miterlimit="10" x1="55.822" y1="57.349" x2="55.822" y2="44.646"/>
				
					<line fill="none" stroke="#0000FA" stroke-width="0.5" stroke-linecap="round" stroke-linejoin="round" stroke-miterlimit="10" x1="57.966" y1="56.451" x2="57.966" y2="43.749"/>
				
					<line fill="none" stroke="#0000FA" stroke-width="0.5" stroke-linecap="round" stroke-linejoin="round" stroke-miterlimit="10" x1="60.111" y1="55.554" x2="60.111" y2="42.852"/>
				
					<line fill="none" stroke="#0000FA" stroke-width="0.5" stroke-linecap="round" stroke-linejoin="round" stroke-miterlimit="10" x1="62.256" y1="54.656" x2="62.256" y2="41.954"/>
				
					<line fill="none" stroke="#0000FA" stroke-width="0.5" stroke-linecap="round" stroke-linejoin="round" stroke-miterlimit="10" x1="64.4" y1="53.759" x2="64.4" y2="41.057"/>
				
					<line fill="none" stroke="#0000FA" stroke-width="0.5" stroke-linecap="round" stroke-linejoin="round" stroke-miterlimit="10" x1="66.545" y1="52.861" x2="66.545" y2="40.159"/>
				
					<line fill="none" stroke="#0000FA" stroke-width="0.5" stroke-linecap="round" stroke-linejoin="round" stroke-miterlimit="10" x1="68.69" y1="51.964" x2="68.69" y2="39.262"/>
				
					<line fill="none" stroke="#0000FA" stroke-width="0.5" stroke-linecap="round" stroke-linejoin="round" stroke-miterlimit="10" x1="70.834" y1="51.066" x2="70.834" y2="38.364"/>
				
					<line fill="none" stroke="#0000FA" stroke-width="0.5" stroke-linecap="round" stroke-linejoin="round" stroke-miterlimit="10" x1="72.979" y1="50.169" x2="72.979" y2="37.467"/>
				
					<line fill="none" stroke="#0000FA" stroke-width="0.5" stroke-linecap="round" stroke-linejoin="round" stroke-miterlimit="10" x1="75.124" y1="49.271" x2="75.124" y2="36.569"/>
			</g>
			<g>
				
					<line fill="none" stroke="#0000FA" stroke-width="0.5" stroke-linecap="round" stroke-linejoin="round" stroke-miterlimit="10" x1="59.029" y1="60.185" x2="59.029" y2="47.482"/>
				
					<line fill="none" stroke="#0000FA" stroke-width="0.5" stroke-linecap="round" stroke-linejoin="round" stroke-miterlimit="10" x1="61.174" y1="59.287" x2="61.174" y2="46.585"/>
				
					<line fill="none" stroke="#0000FA" stroke-width="0.5" stroke-linecap="round" stroke-linejoin="round" stroke-miterlimit="10" x1="63.318" y1="58.39" x2="63.318" y2="45.688"/>
				
					<line fill="none" stroke="#0000FA" stroke-width="0.5" stroke-linecap="round" stroke-linejoin="round" stroke-miterlimit="10" x1="65.463" y1="57.492" x2="65.463" y2="44.79"/>
				
					<line fill="none" stroke="#0000FA" stroke-width="0.5" stroke-linecap="round" stroke-linejoin="round" stroke-miterlimit="10" x1="67.608" y1="56.595" x2="67.608" y2="43.893"/>
				
					<line fill="none" stroke="#0000FA" stroke-width="0.5" stroke-linecap="round" stroke-linejoin="round" stroke-miterlimit="10" x1="69.752" y1="55.697" x2="69.752" y2="42.995"/>
				
					<line fill="none" stroke="#0000FA" stroke-width="0.5" stroke-linecap="round" stroke-linejoin="round" stroke-miterlimit="10" x1="71.897" y1="54.8" x2="71.897" y2="42.098"/>
				
					<line fill="none" stroke="#0000FA" stroke-width="0.5" stroke-linecap="round" stroke-linejoin="round" stroke-miterlimit="10" x1="74.042" y1="53.902" x2="74.042" y2="41.2"/>
				
					<line fill="none" stroke="#0000FA" stroke-width="0.5" stroke-linecap="round" stroke-linejoin="round" stroke-miterlimit="10" x1="76.187" y1="53.005" x2="76.187" y2="40.303"/>
				
					<line fill="none" stroke="#0000FA" stroke-width="0.5" stroke-linecap="round" stroke-linejoin="round" stroke-miterlimit="10" x1="78.332" y1="52.107" x2="78.332" y2="39.405"/>
			</g>
		</g>
		
			<polyline fill="none" stroke="#0000FA" stroke-width="0.5" stroke-linecap="round" stroke-linejoin="round" stroke-miterlimit="10" points="
			46.251,68.382 46.251,77.514 54.504,73.912 54.504,64.729 		"/>
		
			<polyline fill="none" stroke="#0000FA" stroke-width="0.5" stroke-linecap="round" stroke-linejoin="round" stroke-miterlimit="10" points="
			37.419,60.15 37.419,68.646 46.251,77.514 		"/>
		
			<polyline fill="none" stroke="#0000FA" stroke-width="0.5" stroke-linecap="round" stroke-linejoin="round" stroke-miterlimit="10" points="
			73.937,63.803 73.937,66.296 84.332,76.165 99.749,69.541 99.749,67.582 84.606,74.037 73.937,63.803 89.08,57.349 		"/>
		<g>
			
				<polygon fill="none" stroke="#0000FA" stroke-width="0.5" stroke-linecap="round" stroke-linejoin="round" stroke-miterlimit="10" points="
				76.626,88.569 66.76,92.939 63.959,89.744 73.826,85.532 			"/>
			
				<line fill="none" stroke="#0000FA" stroke-width="0.5" stroke-linecap="round" stroke-linejoin="round" stroke-miterlimit="10" x1="66.76" y1="92.939" x2="66.76" y2="95.237"/>
			
				<line fill="none" stroke="#0000FA" stroke-width="0.5" stroke-linecap="round" stroke-linejoin="round" stroke-miterlimit="10" x1="76.626" y1="88.569" x2="76.626" y2="91.534"/>
			
				<line fill="none" stroke="#0000FA" stroke-width="0.5" stroke-linecap="round" stroke-linejoin="round" stroke-miterlimit="10" x1="63.959" y1="93.384" x2="63.959" y2="89.744"/>
		</g>
		<g>
			
				<polygon fill="none" stroke="#0000FA" stroke-width="0.5" stroke-linecap="round" stroke-linejoin="round" stroke-miterlimit="10" points="
				105.133,75.699 95.267,80.069 92.466,77.588 102.466,73.325 			"/>
			
				<line fill="none" stroke="#0000FA" stroke-width="0.5" stroke-linecap="round" stroke-linejoin="round" stroke-miterlimit="10" x1="95.267" y1="80.069" x2="95.267" y2="82.721"/>
			
				<line fill="none" stroke="#0000FA" stroke-width="0.5" stroke-linecap="round" stroke-linejoin="round" stroke-miterlimit="10" x1="105.133" y1="75.699" x2="105.133" y2="78.664"/>
			
				<line fill="none" stroke="#0000FA" stroke-width="0.5" stroke-linecap="round" stroke-linejoin="round" stroke-miterlimit="10" x1="92.466" y1="77.588" x2="92.466" y2="80.513"/>
		</g>
		<g>
			
				<polygon fill="none" stroke="#0000FA" stroke-width="0.5" stroke-linecap="round" stroke-linejoin="round" stroke-miterlimit="10" points="
				93.085,81.415 78.784,87.737 75.984,84.617 90.285,78.553 			"/>
			
				<line fill="none" stroke="#0000FA" stroke-width="0.5" stroke-linecap="round" stroke-linejoin="round" stroke-miterlimit="10" x1="78.784" y1="87.737" x2="78.784" y2="90.034"/>
			
				<line fill="none" stroke="#0000FA" stroke-width="0.5" stroke-linecap="round" stroke-linejoin="round" stroke-miterlimit="10" x1="93.085" y1="81.415" x2="93.085" y2="84.557"/>
			
				<line fill="none" stroke="#0000FA" stroke-width="0.5" stroke-linecap="round" stroke-linejoin="round" stroke-miterlimit="10" x1="75.984" y1="84.617" x2="75.984" y2="87.872"/>
		</g>
	</g>
	<rect x="33.051" y="7.895" opacity="0.6" fill="#0000FA" width="7.031" height="7.031"/>
	<rect x="108.035" y="126.91" opacity="0.6" fill="#0000FA" width="7.031" height="7.031"/>
	
		<polyline fill="none" stroke="#0000FA" stroke-width="0.5" stroke-linecap="round" stroke-linejoin="round" stroke-miterlimit="10" points="
		0.25,70.7 30.933,129.942 114.037,130.064 	"/>
	
		<polyline fill="none" stroke="#0000FA" stroke-width="0.5" stroke-linecap="round" stroke-linejoin="round" stroke-miterlimit="10" points="
		33.845,11.126 116.878,11.126 148.078,70.7 	"/>
	
		<polygon fill="none" stroke="#0000FA" stroke-width="0.5" stroke-linecap="round" stroke-linejoin="round" stroke-miterlimit="10" points="
		33.868,13.646 114.037,13.646 144.432,70.709 114.04,127.843 34.115,127.843 3.723,70.709 	"/>
	<circle fill="none" stroke="#0000FA" stroke-width="0.5" stroke-miterlimit="10" cx="73.937" cy="70.745" r="70.495"/>
</g>
<g>
	<g>
		<g>
			
				<polygon fill="none" stroke="#0000FA" stroke-width="0.5" stroke-linecap="round" stroke-linejoin="round" stroke-miterlimit="10" points="
				330.26,58.041 305.9,58.041 307.941,46.75 328.219,46.75 			"/>
			
				<rect x="305.9" y="58.041" fill="none" stroke="#0000FA" stroke-width="0.5" stroke-linecap="round" stroke-linejoin="round" stroke-miterlimit="10" width="24.36" height="4.393"/>
			
				<polyline fill="none" stroke="#0000FA" stroke-width="0.5" stroke-linecap="round" stroke-linejoin="round" stroke-miterlimit="10" points="
				307.941,46.75 305.9,49.247 305.9,62.433 			"/>
			
				<polyline fill="none" stroke="#0000FA" stroke-width="0.5" stroke-linecap="round" stroke-linejoin="round" stroke-miterlimit="10" points="
				328.219,46.75 330.26,49.247 330.26,62.433 			"/>
		</g>
		
			<path fill="none" stroke="#0000FA" stroke-width="0.5" stroke-linecap="round" stroke-linejoin="round" stroke-miterlimit="10" d="
			M320.925,70.47v-8.037h-5.69v8.037C315.235,70.47,317.628,71.428,320.925,70.47z"/>
		
			<polyline fill="none" stroke="#0000FA" stroke-width="0.5" stroke-linecap="round" stroke-linejoin="round" stroke-miterlimit="10" points="
			319.85,70.896 319.85,101.912 316.311,101.912 316.311,70.896 		"/>
		
			<path fill="none" stroke="#0000FA" stroke-width="0.5" stroke-linecap="round" stroke-linejoin="round" stroke-miterlimit="10" d="
			M305.9,52.396c0,0-6.524,5.874-1.527,19.06c4.997,13.186,11.937,16.243,11.937,27.208"/>
		
			<path fill="none" stroke="#0000FA" stroke-width="0.5" stroke-linecap="round" stroke-linejoin="round" stroke-miterlimit="10" d="
			M330.463,33.846c3.613-1.005,7.649-0.087,10.491,2.755c2.857,2.858,3.77,6.926,2.735,10.556"/>
		
			<path fill="none" stroke="#0000FA" stroke-width="0.5" stroke-linecap="round" stroke-linejoin="round" stroke-miterlimit="10" d="
			M330.748,37.527c2.534-0.705,5.364-0.061,7.356,1.931c2.004,2.004,2.644,4.856,1.918,7.401"/>
		
			<path fill="none" stroke="#0000FA" stroke-width="0.5" stroke-linecap="round" stroke-linejoin="round" stroke-miterlimit="10" d="
			M330.683,41.698c1.415-0.394,2.996-0.034,4.109,1.079c1.12,1.12,1.478,2.713,1.072,4.136"/>
	</g>
	<rect x="278.395" y="7.895" opacity="0.6" fill="#0000FA" width="7.031" height="7.031"/>
	<rect x="353.378" y="126.91" opacity="0.6" fill="#0000FA" width="7.031" height="7.031"/>
	
		<polyline fill="none" stroke="#0000FA" stroke-width="0.5" stroke-linecap="round" stroke-linejoin="round" stroke-miterlimit="10" points="
		245.594,70.7 276.277,129.942 359.381,130.064 	"/>
	
		<polyline fill="none" stroke="#0000FA" stroke-width="0.5" stroke-linecap="round" stroke-linejoin="round" stroke-miterlimit="10" points="
		279.189,11.126 362.222,11.126 393.421,70.7 	"/>
	
		<polygon fill="none" stroke="#0000FA" stroke-width="0.5" stroke-linecap="round" stroke-linejoin="round" stroke-miterlimit="10" points="
		279.211,13.646 359.381,13.646 389.776,70.709 359.383,127.843 279.459,127.843 249.067,70.709 	"/>
	<circle fill="none" stroke="#0000FA" stroke-width="0.5" stroke-miterlimit="10" cx="319.281" cy="70.745" r="70.495"/>
</g>
<g>
	<g>
		
			<path fill="none" stroke="#0000FA" stroke-width="0.5" stroke-linecap="round" stroke-linejoin="round" stroke-miterlimit="10" d="
			M549.979,92.492h-9.57V67.687c0-13.478,10.964-24.444,24.443-24.444c13.479,0,24.443,10.966,24.443,24.444v24.806h-9.57"/>
		
			<path fill="none" stroke="#0000FA" stroke-width="0.5" stroke-linecap="round" stroke-linejoin="round" stroke-miterlimit="10" d="
			M552.521,88.418h-8.039V67.687c0-11.25,9.121-20.37,20.37-20.37s20.37,9.12,20.37,20.37v20.731h-8.04"/>
		
			<path fill="none" stroke="#0000FA" stroke-width="0.5" stroke-linecap="round" stroke-linejoin="round" stroke-miterlimit="10" d="
			M582.252,96.541l-12.918-20.695h3.425v-8.048c0-4.367-3.54-7.907-7.907-7.907s-7.907,3.54-7.907,7.907v8.048h3.424l-12.917,20.695
			"/>
		
			<line fill="none" stroke="#0000FA" stroke-width="0.5" stroke-linecap="round" stroke-linejoin="round" stroke-miterlimit="10" x1="560.369" y1="75.846" x2="569.334" y2="75.846"/>
		
			<line fill="none" stroke="#0000FA" stroke-width="0.5" stroke-linecap="round" stroke-linejoin="round" stroke-miterlimit="10" x1="564.852" y1="76.179" x2="564.852" y2="80.253"/>
		
			<line fill="none" stroke="#0000FA" stroke-width="0.5" stroke-linecap="round" stroke-linejoin="round" stroke-miterlimit="10" x1="564.852" y1="84.475" x2="564.852" y2="88.549"/>
		
			<line fill="none" stroke="#0000FA" stroke-width="0.5" stroke-linecap="round" stroke-linejoin="round" stroke-miterlimit="10" x1="564.852" y1="92.771" x2="564.852" y2="96.846"/>
	</g>
	<rect x="523.739" y="7.895" opacity="0.6" fill="#0000FA" width="7.031" height="7.031"/>
	<rect x="598.723" y="126.91" opacity="0.6" fill="#0000FA" width="7.03" height="7.031"/>
	
		<polyline fill="none" stroke="#0000FA" stroke-width="0.5" stroke-linecap="round" stroke-linejoin="round" stroke-miterlimit="10" points="
		490.938,70.7 521.621,129.942 604.725,130.064 	"/>
	
		<polyline fill="none" stroke="#0000FA" stroke-width="0.5" stroke-linecap="round" stroke-linejoin="round" stroke-miterlimit="10" points="
		524.534,11.126 607.566,11.126 638.765,70.7 	"/>
	
		<polygon fill="none" stroke="#0000FA" stroke-width="0.5" stroke-linecap="round" stroke-linejoin="round" stroke-miterlimit="10" points="
		524.556,13.646 604.725,13.646 635.12,70.709 604.728,127.843 524.803,127.843 494.411,70.709 	"/>
	<circle fill="none" stroke="#0000FA" stroke-width="0.5" stroke-miterlimit="10" cx="564.625" cy="70.745" r="70.495"/>
</g>
</svg>
