<?xml version="1.0" encoding="utf-8"?>
<!-- Generator: Adobe Illustrator 20.0.0, SVG Export Plug-In . SVG Version: 6.00 Build 0)  -->
<!DOCTYPE svg PUBLIC "-//W3C//DTD SVG 1.1//EN" "http://www.w3.org/Graphics/SVG/1.1/DTD/svg11.dtd" [
	<!ENTITY st0 "fill:#DFE4EA;">
	<!ENTITY st1 "fill:#FFFFFF;">
	<!ENTITY st2 "fill:none;stroke:#00DACB;stroke-miterlimit:10;">
	<!ENTITY st3 "fill:none;stroke:#DEE3EA;stroke-miterlimit:10;">
	<!ENTITY st4 "fill:none;stroke:#ECE714;stroke-miterlimit:10;">
	<!ENTITY st5 "fill:none;stroke:#DFE4EA;stroke-miterlimit:10;">
	<!ENTITY st6 "fill:none;stroke:#DFE4EA;stroke-width:2.1341;stroke-miterlimit:10;">
	<!ENTITY st7 "fill:#00DACB;">
	<!ENTITY st8 "fill:none;stroke:#00DACB;stroke-width:1.6005;stroke-miterlimit:10;">
	<!ENTITY st9 "fill:none;stroke:#00DACB;stroke-width:1.067;stroke-miterlimit:10;">
	<!ENTITY st10 "fill:none;">
	<!ENTITY st11 "fill:#ECE714;">
	<!ENTITY st12 "fill:none;stroke:#DFE4EA;stroke-width:1.6005;stroke-miterlimit:10;">
	<!ENTITY st13 "fill:none;stroke:#DFE4EA;stroke-width:1.4227;stroke-miterlimit:10;">
	<!ENTITY st14 "fill:none;stroke:#ECE714;stroke-width:1.6005;stroke-miterlimit:10;">
	<!ENTITY st15 "opacity:0.33;">
	<!ENTITY st16 "fill:none;stroke:#FFFFFF;stroke-miterlimit:10;">
	<!ENTITY st17 "fill:none;stroke:#FFFFFF;stroke-width:2.8454;stroke-miterlimit:10;">
	<!ENTITY st18 "fill:none;stroke:#FFFFFF;stroke-width:2.1341;stroke-miterlimit:10;">
	<!ENTITY st19 "fill:none;stroke:#FFFFFF;stroke-width:1.4227;stroke-miterlimit:10;">
	<!ENTITY st20 "fill:none;stroke:#FFFFFF;stroke-width:1.8969;stroke-miterlimit:10;">
	<!ENTITY st21 "opacity:0.5;fill:#FFFFFF;">
]>
<svg version="1.1" id="Layer_1" xmlns="http://www.w3.org/2000/svg" xmlns:xlink="http://www.w3.org/1999/xlink" x="0px" y="0px"
	 width="885px" height="675px" viewBox="0 0 885 675" style="enable-background:new 0 0 885 675;" xml:space="preserve">
<symbol  id="New_Symbol_18" viewBox="-32.2 -17 64.5 34">
	<g>
		<g>
			<path style="&st0;" d="M-32.2,16.9H-21v-2.5h-7.7v-28.7h7.7v-2.5h-11.2V16.9z"/>
			<path style="&st0;" d="M-3.7,17h3.9l-12.8-34h-3.9L-3.7,17z"/>
			<path style="&st0;" d="M12.7,17h3.9L3.7-17h-3.9L12.7,17z"/>
			<path style="&st0;" d="M21-14.2h7.7v28.7H21v2.5h11.2v-33.6H21V-14.2z"/>
		</g>
	</g>
</symbol>
<rect x="-24" y="-21.9" style="&st1;" width="929" height="725.9"/>
<g>
	<polyline style="&st2;" points="724.5,-20 724.5,40.5 862.5,40.5 862.5,171.5 465.5,171.5 465.5,272.5 75.5,272.5 75.5,80.5 
		35.5,80.5 35.5,35.5 -24,35.5 	"/>
	<polyline style="&st3;" points="675.5,469 675.5,466.5 752.5,466.5 752.5,297.5 788.5,297.5 788.5,231 	"/>
	<polyline style="&st4;" points="905,302.5 757.5,302.5 757.5,521.5 136.5,521.5 136.5,302.5 -32,302.5 	"/>
	<polyline style="&st5;" points="221,176.5 748.5,176.5 748.5,426.5 717.5,426.5 717.5,461.5 593.5,461.5 593.5,469 	"/>
	<polyline style="&st5;" points="110.5,23 110.5,56.5 221.5,56.5 221.5,104.5 709.5,104.5 709.5,192 	"/>
	<polyline style="&st2;" points="701.5,228 701.5,277.5 130.5,277.5 130.5,526.5 672.5,526.5 672.5,531 	"/>
	<polyline style="&st5;" points="753,136.5 714.5,136.5 714.5,99.5 357.5,99.5 357.5,267.5 33.5,267.5 33.5,176.5 163,176.5 	"/>
	<polyline style="&st5;" points="787.5,19 787.5,30.5 300.5,30.5 300.5,110.5 58,110.5 	"/>
	<polyline style="&st2;" points="905,35.5 305.5,35.5 305.5,115.5 58,115.5 	"/>
	<polyline style="&st4;" points="706.5,228 706.5,282.5 261.5,282.5 261.5,318.5 314,318.5 	"/>
	<polyline style="&st5;" points="711.5,228 711.5,287.5 266.5,287.5 266.5,313.5 314,313.5 	"/>
	<polyline style="&st5;" points="716.5,228 716.5,292.5 505.5,292.5 505.5,297 	"/>
	<polyline style="&st5;" points="506.5,469 506.5,456.5 905,456.5 	"/>
	<polyline style="&st5;" points="905,451.5 423.5,451.5 423.5,370.5 505.5,370.5 505.5,344 	"/>
	<polyline style="&st5;" points="345.5,469 345.5,446.5 905,446.5 	"/>
	<polyline style="&st5;" points="905,441.5 261.5,441.5 261.5,324.5 314,324.5 	"/>
	<polyline style="&st5;" points="593.5,429 593.5,436.5 905,436.5 	"/>
	<polyline style="&st5;" points="696.5,228 696.5,431.5 905,431.5 	"/>
	<polyline style="&st5;" points="-30,456.5 40.5,456.5 40.5,648 	"/>
	<polyline style="&st5;" points="-30,451.5 45.5,451.5 45.5,639.5 110.5,639.5 110.5,647 	"/>
	<polyline style="&st5;" points="-30,446.5 50.5,446.5 50.5,590.5 124.5,590.5 124.5,121.5 58,121.5 	"/>
	<polyline style="&st5;" points="-30,436.5 60.5,436.5 60.5,579.5 345.5,579.5 345.5,506 	"/>
	<polyline style="&st5;" points="-30,431.5 65.5,431.5 65.5,574.5 303.5,574.5 303.5,622.5 806.5,622.5 806.5,386.5 827.5,386.5 
		827.5,136.5 818,136.5 	"/>
	<polyline style="&st2;" points="265.5,84 265.5,171.5 308.5,171.5 308.5,704 	"/>
	<polyline style="&st2;" points="308.5,-20 308.5,25.5 777.5,25.5 777.5,19 	"/>
	<polyline style="&st3;" points="531,141.5 659.5,141.5 659.5,376.5 387.5,376.5 387.5,627.5 781.5,627.5 781.5,648 	"/>
	<polyline style="&st5;" points="484,141.5 352.5,141.5 352.5,-21 	"/>
	<polyline style="&st5;" points="352.5,704 352.5,584.5 55.5,584.5 55.5,441.5 -30,441.5 	"/>
	<polyline style="&st2;" points="724.5,695 724.5,632.5 382.5,632.5 382.5,94.5 714.5,94.5 714.5,45.5 782.5,45.5 782.5,19 	"/>
	<g>
		<g>
			<g>
				<circle style="&st6;" cx="34" cy="111.5" r="16.5"/>
				<circle style="&st0;" cx="34" cy="111.5" r="9.1"/>
			</g>
		</g>
	</g>
	<g>
		<g>
			<g>
				<g>
					<path style="&st7;" d="M683.3,212.3c1.7,1.1,3.3,1.9,5.4,1.9c1.9,0,2.8-0.8,2.8-1.9c0-3-8.9-2.5-8.9-7.7c0-2.5,1.9-4.2,4.8-4.6
						v-3.8h2.3v3.8c2,0.2,3.5,1.1,4.7,2.3l-1.7,2c-1.4-1-2.4-1.6-4.2-1.6c-1.6,0-2.6,0.7-2.6,1.9c0,2.6,8.9,2.2,8.9,7.6
						c0,2.5-1.9,4.4-5.1,4.8v4.3h-2.3v-4.2c-2-0.2-4.2-1.1-5.6-2.3L683.3,212.3z"/>
					<path style="&st7;" d="M699.5,209.8c0-5.6,2.5-10.1,6.4-13.3l1.9,1.6c-3.7,3.4-5.4,7-5.4,11.8s1.6,8.4,5.4,11.8l-1.9,1.6
						C702,219.9,699.5,215.4,699.5,209.8z"/>
					<path style="&st7;" d="M712.9,221.6c3.7-3.4,5.4-7,5.4-11.8s-1.6-8.4-5.4-11.8l1.9-1.6c3.9,3.2,6.4,7.8,6.4,13.3
						c0,5.6-2.5,10.1-6.4,13.3L712.9,221.6z"/>
					<path style="&st7;" d="M727.5,205.4c0-1.7,1.2-3,2.9-3c1.7,0,2.9,1.3,2.9,3c0,1.7-1.2,3-2.9,3
						C728.7,208.3,727.5,207.1,727.5,205.4z M727.5,215.3c0-1.7,1.2-3,2.9-3c1.7,0,2.9,1.3,2.9,3s-1.2,3-2.9,3
						C728.7,218.3,727.5,217,727.5,215.3z"/>
				</g>
			</g>
		</g>
	</g>
	<g>
		<g>
			<g>
				<g>
					<path style="&st0;" d="M773.7,209.8c0-5.6,2.5-10.1,6.4-13.3l1.9,1.6c-3.7,3.4-5.4,7-5.4,11.8s1.6,8.4,5.4,11.8l-1.9,1.6
						C776.2,219.9,773.7,215.4,773.7,209.8z"/>
					<path style="&st0;" d="M787.1,221.6c3.7-3.4,5.4-7,5.4-11.8s-1.6-8.4-5.4-11.8l1.9-1.6c3.9,3.2,6.4,7.8,6.4,13.3
						c0,5.6-2.5,10.1-6.4,13.3L787.1,221.6z"/>
					<path style="&st0;" d="M801.7,205.4c0-1.7,1.2-3,2.9-3c1.7,0,2.9,1.3,2.9,3c0,1.7-1.2,3-2.9,3
						C802.9,208.3,801.7,207.1,801.7,205.4z M801.7,215.3c0-1.7,1.2-3,2.9-3c1.7,0,2.9,1.3,2.9,3s-1.2,3-2.9,3
						C802.9,218.3,801.7,217,801.7,215.3z"/>
				</g>
			</g>
		</g>
	</g>
	<g>
		<g>
			<g>
				<polygon style="&st8;" points="214.5,172.6 194.1,185.3 173.7,172.6 194.1,160.3 				"/>
				<polygon style="&st9;" points="214.5,181.9 194.1,194.5 173.7,181.9 194.1,169.6 				"/>
				<polygon style="&st7;" points="194.1,185.1 181.3,177.3 173.7,182 194.1,194.4 214.5,182 207,177.3 				"/>
			</g>
		</g>
	</g>
	<g>
		<g>
			<g>
				<g>
					<path style="&st0;" d="M238.1,4.2c1.7,1.1,3.3,1.9,5.4,1.9c1.9,0,2.8-0.8,2.8-1.9c0-3-8.9-2.5-8.9-7.7c0-2.5,1.9-4.2,4.8-4.6
						V-12h2.3v3.8c2,0.2,3.5,1.1,4.7,2.3l-1.7,2c-1.4-1-2.4-1.6-4.2-1.6c-1.6,0-2.6,0.7-2.6,1.9c0,2.6,8.9,2.2,8.9,7.6
						c0,2.5-1.9,4.4-5.1,4.8v4.3h-2.3V8.8c-2-0.2-4.2-1.1-5.6-2.3L238.1,4.2z"/>
					<path style="&st0;" d="M254.3,1.7c0-5.6,2.5-10.1,6.4-13.3l1.9,1.6c-3.7,3.4-5.4,7-5.4,11.8s1.6,8.4,5.4,11.8l-1.9,1.6
						C256.8,11.8,254.3,7.3,254.3,1.7z"/>
					<path style="&st0;" d="M267.7,13.5c3.7-3.4,5.4-7,5.4-11.8s-1.6-8.4-5.4-11.8l1.9-1.6c3.9,3.2,6.4,7.8,6.4,13.3
						c0,5.6-2.5,10.1-6.4,13.3L267.7,13.5z"/>
					<path style="&st0;" d="M282.3-2.7c0-1.7,1.2-3,2.9-3c1.7,0,2.9,1.3,2.9,3c0,1.7-1.2,3-2.9,3C283.5,0.2,282.3-1,282.3-2.7z
						 M282.3,7.2c0-1.7,1.2-3,2.9-3c1.7,0,2.9,1.3,2.9,3s-1.2,3-2.9,3C283.5,10.2,282.3,8.9,282.3,7.2z"/>
				</g>
			</g>
		</g>
	</g>
	<g>
		<g>
			<g>
				<line style="&st6;" x1="797.1" y1="-14.2" x2="797.1" y2="9.1"/>
				<polyline style="&st6;" points="793.2,12.9 766.1,12.9 766.1,-14.2 				"/>
				<g>
					<rect x="793.2" y="9.1" style="&st10;" width="7.7" height="7.7"/>
					<path style="&st0;" d="M800,10v5.8h-5.8V10H800 M801.9,8.1H800h-5.8h-1.9V10v5.8v1.9h1.9h5.8h1.9v-1.9V10V8.1L801.9,8.1z"/>
				</g>
				<g>
					<rect x="762.2" y="9.1" style="&st0;" width="7.7" height="7.7"/>
					<path style="&st0;" d="M769,10v5.8h-5.8V10H769 M770.9,8.1H769h-5.8h-1.9V10v5.8v1.9h1.9h5.8h1.9v-1.9V10V8.1L770.9,8.1z"/>
				</g>
			</g>
		</g>
	</g>
	<g>
		<g>
			<g>
				<g>
					<rect x="248.5" y="78.4" style="&st0;" width="35.4" height="1.9"/>
				</g>
				<g>
					<rect x="240.8" y="37.9" style="&st0;" width="1.9" height="35.5"/>
				</g>
				<g>
					<path style="&st0;" d="M282.9,72.4h-34.2V38.2h34.2V72.4z M251.6,69.6h28.5V41.1h-28.5V69.6z"/>
				</g>
				<polygon style="&st0;" points="259.3,40.2 281.5,62.4 281.5,40.2 				"/>
			</g>
		</g>
	</g>
	<g id="XMLID_13_">
		<g>
			<g>
				<circle style="&st8;" cx="111.4" cy="675.3" r="15.7"/>
				<line style="&st9;" x1="89.1" y1="675.7" x2="111.8" y2="653"/>
				<g>
					<rect x="97.4" y="661.3" style="&st7;" width="6.2" height="6.2"/>
					<path style="&st7;" d="M102.6,662.3v4.3h-4.3v-4.3H102.6 M104.5,660.4h-1.9h-4.3h-1.9v1.9v4.3v1.9h1.9h4.3h1.9v-1.9v-4.3V660.4
						L104.5,660.4z"/>
				</g>
			</g>
		</g>
	</g>
	<g>
		<g>
			<g>
				<g>
					<circle style="&st7;" cx="354.5" cy="320.7" r="8.9"/>
					<g>
						<path style="&st7;" d="M354.9,335.8h-17.7c-8.3,0-15.1-6.8-15.1-15.1c0-8.3,6.8-15.1,15.1-15.1h17.7c8.3,0,15.1,6.8,15.1,15.1
							C370,329.1,363.2,335.8,354.9,335.8z M337.2,308.4c-6.8,0-12.3,5.5-12.3,12.3c0,6.8,5.5,12.3,12.3,12.3h17.7
							c6.8,0,12.3-5.5,12.3-12.3c0-6.8-5.5-12.3-12.3-12.3H337.2z"/>
					</g>
				</g>
			</g>
		</g>
	</g>
	<g>
		<g>
			<g>
				<g>
					<path style="&st11;" d="M844.4,577.2c-9.9,0-17.9-8-17.9-17.9s8-17.9,17.9-17.9s17.9,8,17.9,17.9S854.3,577.2,844.4,577.2z
						 M844.4,544.1c-8.3,0-15.1,6.8-15.1,15.1s6.8,15.1,15.1,15.1s15.1-6.8,15.1-15.1S852.7,544.1,844.4,544.1z"/>
				</g>
				<g>
					
						<rect x="835.9" y="557.8" transform="matrix(0.7071 -0.7071 0.7071 0.7071 -148.1167 760.868)" style="&st11;" width="16.9" height="2.8"/>
				</g>
				<g>
					
						<rect x="843" y="550.8" transform="matrix(0.7071 -0.7071 0.7071 0.7071 -148.1167 760.8672)" style="&st11;" width="2.8" height="16.9"/>
				</g>
			</g>
		</g>
	</g>
	<g>
		<g>
			<g>
				<g>
					<line style="&st1;" x1="707.5" y1="558" x2="689.9" y2="558"/>
					<rect x="689.9" y="557" style="&st0;" width="17.6" height="1.9"/>
				</g>
				<g>
					
						<rect x="660.3" y="544.6" transform="matrix(0.7071 0.7071 -0.7071 0.7071 591.7187 -312.8608)" style="&st10;" width="26.4" height="26.4"/>
					<path style="&st0;" d="M673.5,578.5l-20.7-20.7l20.7-20.7l20.7,20.7L673.5,578.5z M656.8,557.8l16.7,16.7l16.7-16.7l-16.7-16.7
						L656.8,557.8z"/>
				</g>
				<g>
					<rect x="703.6" y="554" style="&st0;" width="7.8" height="7.8"/>
					<path style="&st0;" d="M710.4,554.9v5.9h-5.9v-5.9H710.4 M712.3,553h-1.9h-5.9h-1.9v1.9v5.9v1.9h1.9h5.9h1.9v-1.9v-5.9V553
						L712.3,553z"/>
				</g>
			</g>
		</g>
	</g>
	<g>
		<g>
			<g>
				<circle style="&st6;" cx="594.1" cy="409.2" r="16.5"/>
				<circle style="&st0;" cx="594.1" cy="409.2" r="9.1"/>
			</g>
		</g>
	</g>
	<g>
		<g>
			<g>
				<g>
					<rect x="658.7" y="510.8" style="&st0;" width="35.4" height="1.9"/>
				</g>
				<g>
					<rect x="651.1" y="470.2" style="&st0;" width="1.9" height="35.5"/>
				</g>
				<g>
					<path style="&st0;" d="M693.2,504.8H659v-34.2h34.2V504.8z M661.8,501.9h28.5v-28.5h-28.5V501.9z"/>
				</g>
				<polygon style="&st0;" points="669.5,472.5 691.7,494.7 691.7,472.5 				"/>
			</g>
		</g>
	</g>
	<g>
		<g>
			<g>
				<g>
					<path style="&st0;" d="M238.1,679.2c1.7,1.1,3.3,1.9,5.4,1.9c1.9,0,2.8-0.8,2.8-1.9c0-3-8.9-2.5-8.9-7.7c0-2.5,1.9-4.2,4.8-4.6
						V663h2.3v3.8c2,0.2,3.5,1.1,4.7,2.3l-1.7,2c-1.4-1-2.4-1.6-4.2-1.6c-1.6,0-2.6,0.7-2.6,1.9c0,2.6,8.9,2.2,8.9,7.6
						c0,2.5-1.9,4.4-5.1,4.8v4.3h-2.3v-4.2c-2-0.2-4.2-1.1-5.6-2.3L238.1,679.2z"/>
					<path style="&st0;" d="M254.3,676.7c0-5.6,2.5-10.1,6.4-13.3l1.9,1.6c-3.7,3.4-5.4,7-5.4,11.8c0,4.8,1.6,8.4,5.4,11.8l-1.9,1.6
						C256.8,686.8,254.3,682.3,254.3,676.7z"/>
					<path style="&st0;" d="M267.7,688.5c3.7-3.4,5.4-7,5.4-11.8c0-4.8-1.6-8.4-5.4-11.8l1.9-1.6c3.9,3.2,6.4,7.8,6.4,13.3
						c0,5.6-2.5,10.1-6.4,13.3L267.7,688.5z"/>
					<path style="&st0;" d="M282.3,672.3c0-1.7,1.2-3,2.9-3c1.7,0,2.9,1.3,2.9,3c0,1.7-1.2,3-2.9,3
						C283.5,675.2,282.3,674,282.3,672.3z M282.3,682.2c0-1.7,1.2-3,2.9-3c1.7,0,2.9,1.3,2.9,3s-1.2,3-2.9,3
						C283.5,685.2,282.3,683.9,282.3,682.2z"/>
				</g>
			</g>
		</g>
	</g>
	<g>
		<g>
			<g>
				<line style="&st6;" x1="797.1" y1="660.8" x2="797.1" y2="684.1"/>
				<line style="&st6;" x1="769.9" y1="656.9" x2="793.2" y2="656.9"/>
				<polyline style="&st6;" points="793.2,687.9 766.1,687.9 766.1,660.8 				"/>
				<g>
					<rect x="793.2" y="653.1" style="&st10;" width="7.7" height="7.7"/>
					<path style="&st0;" d="M800,654v5.8h-5.8V654H800 M801.9,652.1H800h-5.8h-1.9v1.9v5.8v1.9h1.9h5.8h1.9v-1.9V654V652.1
						L801.9,652.1z"/>
				</g>
				<g>
					<rect x="762.2" y="653.1" style="&st10;" width="7.7" height="7.7"/>
					<path style="&st0;" d="M769,654v5.8h-5.8V654H769 M770.9,652.1H769h-5.8h-1.9v1.9v5.8v1.9h1.9h5.8h1.9v-1.9V654V652.1
						L770.9,652.1z"/>
				</g>
			</g>
		</g>
	</g>
	<g>
		<g>
			<g>
				<g>
					<rect x="14.9" y="655.9" style="&st11;" width="1.9" height="35.5"/>
				</g>
				<g>
					<path style="&st11;" d="M57,690.4H22.8v-34.2H57V690.4z M25.6,687.6h28.5v-28.5H25.6V687.6z"/>
				</g>
				<polygon style="&st11;" points="33.4,658.2 55.5,680.3 55.5,658.2 				"/>
			</g>
		</g>
	</g>
	<g>
		<g>
			<g>
				<circle style="&st8;" cx="111.4" cy="0.3" r="15.7"/>
				<line style="&st9;" x1="89.1" y1="0.7" x2="111.8" y2="-22"/>
			</g>
		</g>
	</g>
	<g>
		<g>
			<g>
				<g>
					<rect x="22.5" y="21.4" style="&st11;" width="35.4" height="1.9"/>
				</g>
				<g>
					<rect x="14.9" y="-19.1" style="&st11;" width="1.9" height="35.5"/>
				</g>
				<g>
					<path style="&st11;" d="M57,15.4H22.8v-34.2H57V15.4z M25.6,12.6h28.5v-28.5H25.6V12.6z"/>
				</g>
				<polygon style="&st11;" points="33.4,-16.8 55.5,5.3 55.5,-16.8 				"/>
			</g>
		</g>
	</g>
	<g>
		<g>
			<g>
				<g>
					<path style="&st0;" d="M764.9,124.2h8.4v1.8h-5.8v21.5h5.8v1.8h-8.4V124.2z"/>
					<path style="&st0;" d="M786.3,124.2h2.9l-9.6,25.5h-2.9L786.3,124.2z"/>
					<path style="&st0;" d="M798.6,124.2h2.9l-9.6,25.5H789L798.6,124.2z"/>
					<path style="&st0;" d="M804.9,147.6h5.8v-21.5h-5.8v-1.8h8.4v25.2h-8.4V147.6z"/>
				</g>
			</g>
		</g>
	</g>
	<g>
		<g>
			<g>
				<g>
					<path style="&st11;" d="M325.9,494.8c0-2.1,0.3-3.4,0.3-5.3c0-1.1-0.8-2.2-4.1-2.2v-2c3.3,0,4.1-1.1,4.1-2.2
						c0-1.8-0.3-3.3-0.3-5.3c0-3.1,1.7-4,5.4-4h2v1.8H332c-2.7,0-3.3,0.6-3.3,2.3c0,1.6,0.1,3.2,0.1,5c0,2-0.7,3-2.8,3.3v0.1
						c2,0.4,2.8,1.3,2.8,3.3c0,1.9-0.1,3.3-0.1,5c0,1.8,0.6,2.3,3.3,2.3h1.3v1.8h-2C327.6,498.9,325.9,497.9,325.9,494.8z"/>
					<path style="&st11;" d="M336.9,481.9c0-1.7,1.2-3,2.9-3c1.7,0,2.9,1.3,2.9,3c0,1.7-1.2,3-2.9,3
						C338.1,484.8,336.9,483.6,336.9,481.9z M336.9,491.8c0-1.7,1.2-3,2.9-3c1.7,0,2.9,1.3,2.9,3s-1.2,3-2.9,3
						C338.1,494.8,336.9,493.5,336.9,491.8z"/>
					<path style="&st11;" d="M348.8,498.7c2.5-1,3.7-2.5,3.7-4.5c-0.1,0-0.3,0-0.4,0c-1.5,0-2.8-0.9-2.8-2.6c0-1.6,1.3-2.6,2.8-2.6
						c2.1,0,3.2,1.7,3.2,4.4c0,3.6-2,6.1-5.7,7.3L348.8,498.7z M349.2,481.9c0-1.7,1.2-3,2.9-3c1.7,0,2.9,1.3,2.9,3
						c0,1.7-1.2,3-2.9,3C350.4,484.8,349.2,483.6,349.2,481.9z"/>
					<path style="&st11;" d="M358.6,497h1.3c2.7,0,3.3-0.6,3.3-2.3c0-1.7-0.1-3.2-0.1-5c0-2,0.7-3,2.8-3.3v-0.1
						c-2.1-0.4-2.8-1.3-2.8-3.3c0-1.8,0.1-3.4,0.1-5c0-1.8-0.6-2.3-3.3-2.3h-1.3v-1.8h2c3.7,0,5.4,0.9,5.4,4c0,2-0.3,3.5-0.3,5.3
						c0,1.1,0.8,2.2,4.1,2.2v2c-3.3,0-4.1,1.1-4.1,2.2c0,1.9,0.3,3.2,0.3,5.3c0,3.1-1.7,4-5.4,4h-2V497z"/>
				</g>
			</g>
		</g>
	</g>
	
		<use xlink:href="#New_Symbol_18"  width="64.5" height="34" id="XMLID_12_" x="-32.2" y="-17" transform="matrix(0.75 0 0 -0.75 506.5752 487.2063)" style="overflow:visible;"/>
	<g id="XMLID_11_">
		<g>
			<g>
				<line style="&st12;" x1="522.7" y1="309.1" x2="522.7" y2="332.4"/>
				<line style="&st12;" x1="495.6" y1="305.2" x2="518.8" y2="305.2"/>
				<polyline style="&st12;" points="518.8,336.2 491.7,336.2 491.7,309.1 				"/>
				<g>
					<rect x="518.8" y="301.4" style="&st10;" width="7.7" height="7.7"/>
					<path style="&st0;" d="M525.6,302.3v5.8h-5.8v-5.8H525.6 M527.5,300.4h-1.9h-5.8h-1.9v1.9v5.8v1.9h1.9h5.8h1.9v-1.9v-5.8V300.4
						L527.5,300.4z"/>
				</g>
				<g>
					<rect x="487.8" y="301.4" style="&st10;" width="7.7" height="7.7"/>
					<path style="&st0;" d="M494.6,302.3v5.8h-5.8v-5.8H494.6 M496.5,300.4h-1.9h-5.8h-1.9v1.9v5.8v1.9h1.9h5.8h1.9v-1.9v-5.8V300.4
						L496.5,300.4z"/>
				</g>
				<g>
					<rect x="518.8" y="332.4" style="&st10;" width="7.7" height="7.7"/>
					<path style="&st0;" d="M525.6,333.3v5.8h-5.8v-5.8H525.6 M527.5,331.4h-1.9h-5.8h-1.9v1.9v5.8v1.9h1.9h5.8h1.9v-1.9v-5.8V331.4
						L527.5,331.4z"/>
				</g>
				<g>
					<rect x="487.8" y="332.4" style="&st0;" width="7.7" height="7.7"/>
					<path style="&st0;" d="M494.6,333.3v5.8h-5.8v-5.8H494.6 M496.5,331.4h-1.9h-5.8h-1.9v1.9v5.8v1.9h1.9h5.8h1.9v-1.9v-5.8V331.4
						L496.5,331.4z"/>
				</g>
			</g>
		</g>
	</g>
	<g>
		<g>
			<g>
				<circle style="&st6;" cx="507" cy="203.6" r="15.7"/>
				<line style="&st13;" x1="484.7" y1="204" x2="507.4" y2="181.3"/>
				<g>
					<rect x="493" y="189.6" style="&st0;" width="6.2" height="6.2"/>
					<path style="&st0;" d="M498.2,190.6v4.3h-4.3v-4.3H498.2 M500.1,188.7h-1.9h-4.3H492v1.9v4.3v1.9h1.9h4.3h1.9v-1.9v-4.3V188.7
						L500.1,188.7z"/>
				</g>
			</g>
		</g>
	</g>
	<g>
		<g>
			<g>
				<circle style="&st14;" cx="507.4" cy="141.6" r="16.5"/>
				<circle style="&st11;" cx="507.4" cy="141.6" r="9.1"/>
			</g>
		</g>
	</g>
</g>
<rect x="-24" y="-21.9" style="&st21;" width="929" height="725.9"/>
</svg>
