<?xml version="1.0" encoding="utf-8"?>
<!-- Generator: Adobe Illustrator 15.0.0, SVG Export Plug-In . SVG Version: 6.00 Build 0)  -->
<!DOCTYPE svg PUBLIC "-//W3C//DTD SVG 1.1//EN" "http://www.w3.org/Graphics/SVG/1.1/DTD/svg11.dtd">
<svg version="1.1" id="レイヤー_1" xmlns="http://www.w3.org/2000/svg" xmlns:xlink="http://www.w3.org/1999/xlink" x="0px"
	 y="0px" width="463.825px" height="456.958px" viewBox="0 0 463.825 456.958" enable-background="new 0 0 463.825 456.958"
	 xml:space="preserve">
<g opacity="0.2">
	
		<line fill="none" stroke="#FFFFFF" stroke-width="0.736" stroke-miterlimit="10" x1="165.747" y1="302.087" x2="234.239" y2="127.566"/>
	
		<line fill="none" stroke="#FFFFFF" stroke-width="0.736" stroke-miterlimit="10" x1="229.191" y1="127.716" x2="162.149" y2="298.541"/>
	
		<line fill="none" stroke="#FFFFFF" stroke-width="0.736" stroke-miterlimit="10" x1="169.441" y1="305.387" x2="239.19" y2="127.661"/>
	
		<line fill="none" stroke="#FFFFFF" stroke-width="0.736" stroke-miterlimit="10" x1="234.239" y1="127.566" x2="165.747" y2="302.087"/>
	
		<line fill="none" stroke="#FFFFFF" stroke-width="0.736" stroke-miterlimit="10" x1="158.655" y1="294.733" x2="224.041" y2="128.128"/>
	
		<line fill="none" stroke="#FFFFFF" stroke-width="0.736" stroke-miterlimit="10" x1="218.777" y1="128.827" x2="155.272" y2="290.641"/>
	
		<line fill="none" stroke="#FFFFFF" stroke-width="0.736" stroke-miterlimit="10" x1="155.272" y1="290.641" x2="218.777" y2="128.827"/>
	
		<line fill="none" stroke="#FFFFFF" stroke-width="0.736" stroke-miterlimit="10" x1="213.392" y1="129.838" x2="152.014" y2="286.23"/>
	
		<line fill="none" stroke="#FFFFFF" stroke-width="0.736" stroke-miterlimit="10" x1="162.149" y1="298.541" x2="229.191" y2="127.716"/>
	
		<line fill="none" stroke="#FFFFFF" stroke-width="0.736" stroke-miterlimit="10" x1="224.041" y1="128.128" x2="158.655" y2="294.733"/>
	
		<line fill="none" stroke="#FFFFFF" stroke-width="0.736" stroke-miterlimit="10" x1="173.227" y1="308.452" x2="244.052" y2="127.987"/>
	
		<line fill="none" stroke="#FFFFFF" stroke-width="0.736" stroke-miterlimit="10" x1="239.19" y1="127.661" x2="169.441" y2="305.387"/>
	
		<line fill="none" stroke="#FFFFFF" stroke-width="0.736" stroke-miterlimit="10" x1="189.22" y1="318.55" x2="262.645" y2="131.458"/>
	
		<line fill="none" stroke="#FFFFFF" stroke-width="0.736" stroke-miterlimit="10" x1="258.119" y1="130.277" x2="185.099" y2="316.338"/>
	
		<line fill="none" stroke="#FFFFFF" stroke-width="0.736" stroke-miterlimit="10" x1="177.1" y1="311.295" x2="248.824" y2="128.537"/>
	
		<line fill="none" stroke="#FFFFFF" stroke-width="0.736" stroke-miterlimit="10" x1="244.052" y1="127.987" x2="173.227" y2="308.452"/>
	
		<line fill="none" stroke="#FFFFFF" stroke-width="0.736" stroke-miterlimit="10" x1="197.699" y1="322.368" x2="271.455" y2="134.435"/>
	
		<line fill="none" stroke="#FFFFFF" stroke-width="0.736" stroke-miterlimit="10" x1="267.09" y1="132.843" x2="193.419" y2="320.56"/>
	
		<line fill="none" stroke="#FFFFFF" stroke-width="0.736" stroke-miterlimit="10" x1="185.099" y1="316.338" x2="258.119" y2="130.277"/>
	
		<line fill="none" stroke="#FFFFFF" stroke-width="0.736" stroke-miterlimit="10" x1="253.514" y1="129.302" x2="181.058" y2="313.921"/>
	
		<line fill="none" stroke="#FFFFFF" stroke-width="0.736" stroke-miterlimit="10" x1="181.058" y1="313.921" x2="253.514" y2="129.302"/>
	
		<line fill="none" stroke="#FFFFFF" stroke-width="0.736" stroke-miterlimit="10" x1="248.824" y1="128.537" x2="177.1" y2="311.295"/>
	
		<line fill="none" stroke="#FFFFFF" stroke-width="0.736" stroke-miterlimit="10" x1="193.419" y1="320.56" x2="267.09" y2="132.843"/>
	
		<line fill="none" stroke="#FFFFFF" stroke-width="0.736" stroke-miterlimit="10" x1="262.645" y1="131.458" x2="189.22" y2="318.55"/>
	
		<line fill="none" stroke="#FFFFFF" stroke-width="0.736" stroke-miterlimit="10" x1="162.341" y1="158.221" x2="133.888" y2="230.722"/>
	
		<line fill="none" stroke="#FFFFFF" stroke-width="0.736" stroke-miterlimit="10" x1="134.681" y1="241.412" x2="170.188" y2="150.94"/>
	
		<line fill="none" stroke="#FFFFFF" stroke-width="0.736" stroke-miterlimit="10" x1="170.188" y1="150.94" x2="134.681" y2="241.412"/>
	
		<line fill="none" stroke="#FFFFFF" stroke-width="0.736" stroke-miterlimit="10" x1="136.214" y1="250.218" x2="177.302" y2="145.524"/>
	
		<line fill="none" stroke="#FFFFFF" stroke-width="0.736" stroke-miterlimit="10" x1="152.973" y1="169.38" x2="134.607" y2="216.177"/>
	
		<line fill="none" stroke="#FFFFFF" stroke-width="0.736" stroke-miterlimit="10" x1="133.888" y1="230.722" x2="162.341" y2="158.221"/>
	
		<line fill="none" stroke="#FFFFFF" stroke-width="0.736" stroke-miterlimit="10" x1="134.607" y1="216.177" x2="152.973" y2="169.38"/>
	
		<line fill="none" stroke="#FFFFFF" stroke-width="0.736" stroke-miterlimit="10" x1="177.302" y1="145.524" x2="136.214" y2="250.218"/>
	
		<line fill="none" stroke="#FFFFFF" stroke-width="0.736" stroke-miterlimit="10" x1="138.207" y1="257.853" x2="183.958" y2="141.278"/>
	
		<line fill="none" stroke="#FFFFFF" stroke-width="0.736" stroke-miterlimit="10" x1="190.279" y1="137.882" x2="140.535" y2="264.632"/>
	
		<line fill="none" stroke="#FFFFFF" stroke-width="0.736" stroke-miterlimit="10" x1="143.121" y1="270.755" x2="196.342" y2="135.145"/>
	
		<line fill="none" stroke="#FFFFFF" stroke-width="0.736" stroke-miterlimit="10" x1="196.342" y1="135.145" x2="143.121" y2="270.755"/>
	
		<line fill="none" stroke="#FFFFFF" stroke-width="0.736" stroke-miterlimit="10" x1="145.915" y1="276.348" x2="202.198" y2="132.937"/>
	
		<line fill="none" stroke="#FFFFFF" stroke-width="0.736" stroke-miterlimit="10" x1="202.198" y1="132.937" x2="145.915" y2="276.348"/>
	
		<line fill="none" stroke="#FFFFFF" stroke-width="0.736" stroke-miterlimit="10" x1="148.889" y1="281.481" x2="207.871" y2="131.193"/>
	
		<line fill="none" stroke="#FFFFFF" stroke-width="0.736" stroke-miterlimit="10" x1="152.014" y1="286.23" x2="213.392" y2="129.838"/>
	
		<line fill="none" stroke="#FFFFFF" stroke-width="0.736" stroke-miterlimit="10" x1="207.871" y1="131.193" x2="148.889" y2="281.481"/>
	
		<line fill="none" stroke="#FFFFFF" stroke-width="0.736" stroke-miterlimit="10" x1="183.958" y1="141.278" x2="138.207" y2="257.853"/>
	
		<line fill="none" stroke="#FFFFFF" stroke-width="0.736" stroke-miterlimit="10" x1="140.535" y1="264.632" x2="190.279" y2="137.882"/>
	
		<line fill="none" stroke="#FFFFFF" stroke-width="0.736" stroke-miterlimit="10" x1="266.824" y1="324.201" x2="323.372" y2="180.114"/>
	
		<line fill="none" stroke="#FFFFFF" stroke-width="0.736" stroke-miterlimit="10" x1="320.383" y1="175.019" x2="261.166" y2="325.906"/>
	
		<line fill="none" stroke="#FFFFFF" stroke-width="0.736" stroke-miterlimit="10" x1="278.7" y1="319.363" x2="328.794" y2="191.724"/>
	
		<line fill="none" stroke="#FFFFFF" stroke-width="0.736" stroke-miterlimit="10" x1="326.184" y1="185.662" x2="272.661" y2="322.04"/>
	
		<line fill="none" stroke="#FFFFFF" stroke-width="0.736" stroke-miterlimit="10" x1="284.994" y1="316.038" x2="331.15" y2="198.432"/>
	
		<line fill="none" stroke="#FFFFFF" stroke-width="0.736" stroke-miterlimit="10" x1="328.794" y1="191.724" x2="278.7" y2="319.363"/>
	
		<line fill="none" stroke="#FFFFFF" stroke-width="0.736" stroke-miterlimit="10" x1="255.657" y1="327.231" x2="317.247" y2="170.299"/>
	
		<line fill="none" stroke="#FFFFFF" stroke-width="0.736" stroke-miterlimit="10" x1="313.975" y1="165.924" x2="250.282" y2="328.214"/>
	
		<line fill="none" stroke="#FFFFFF" stroke-width="0.736" stroke-miterlimit="10" x1="291.616" y1="311.878" x2="333.178" y2="205.978"/>
	
		<line fill="none" stroke="#FFFFFF" stroke-width="0.736" stroke-miterlimit="10" x1="331.15" y1="198.432" x2="284.994" y2="316.038"/>
	
		<line fill="none" stroke="#FFFFFF" stroke-width="0.736" stroke-miterlimit="10" x1="202.058" y1="323.973" x2="275.741" y2="136.225"/>
	
		<line fill="none" stroke="#FFFFFF" stroke-width="0.736" stroke-miterlimit="10" x1="271.455" y1="134.435" x2="197.699" y2="322.368"/>
	
		<line fill="none" stroke="#FFFFFF" stroke-width="0.736" stroke-miterlimit="10" x1="272.661" y1="322.04" x2="326.184" y2="185.662"/>
	
		<line fill="none" stroke="#FFFFFF" stroke-width="0.736" stroke-miterlimit="10" x1="323.372" y1="180.114" x2="266.824" y2="324.201"/>
	
		<line fill="none" stroke="#FFFFFF" stroke-width="0.736" stroke-miterlimit="10" x1="315.581" y1="288.951" x2="335.143" y2="239.107"/>
	
		<line fill="none" stroke="#FFFFFF" stroke-width="0.736" stroke-miterlimit="10" x1="335.638" y1="225.133" x2="306.438" y2="299.535"/>
	
		<line fill="none" stroke="#FFFFFF" stroke-width="0.736" stroke-miterlimit="10" x1="306.438" y1="299.535" x2="335.638" y2="225.133"/>
	
		<line fill="none" stroke="#FFFFFF" stroke-width="0.736" stroke-miterlimit="10" x1="334.755" y1="214.671" x2="298.681" y2="306.59"/>
	
		<line fill="none" stroke="#FFFFFF" stroke-width="0.736" stroke-miterlimit="10" x1="335.143" y1="239.107" x2="315.581" y2="288.951"/>
	
		<line fill="none" stroke="#FFFFFF" stroke-width="0.736" stroke-miterlimit="10" x1="298.681" y1="306.59" x2="334.755" y2="214.671"/>
	
		<line fill="none" stroke="#FFFFFF" stroke-width="0.736" stroke-miterlimit="10" x1="333.178" y1="205.978" x2="291.616" y2="311.878"/>
	
		<line fill="none" stroke="#FFFFFF" stroke-width="0.736" stroke-miterlimit="10" x1="261.166" y1="325.906" x2="320.383" y2="175.019"/>
	
		<line fill="none" stroke="#FFFFFF" stroke-width="0.736" stroke-miterlimit="10" x1="317.247" y1="170.299" x2="255.657" y2="327.231"/>
	
		<line fill="none" stroke="#FFFFFF" stroke-width="0.736" stroke-miterlimit="10" x1="215.612" y1="327.573" x2="288.126" y2="142.804"/>
	
		<line fill="none" stroke="#FFFFFF" stroke-width="0.736" stroke-miterlimit="10" x1="284.077" y1="140.407" x2="211.014" y2="326.577"/>
	
		<line fill="none" stroke="#FFFFFF" stroke-width="0.736" stroke-miterlimit="10" x1="225.057" y1="328.931" x2="295.974" y2="148.231"/>
	
		<line fill="none" stroke="#FFFFFF" stroke-width="0.736" stroke-miterlimit="10" x1="292.092" y1="145.41" x2="220.292" y2="328.359"/>
	
		<line fill="none" stroke="#FFFFFF" stroke-width="0.736" stroke-miterlimit="10" x1="220.292" y1="328.359" x2="292.092" y2="145.41"/>
	
		<line fill="none" stroke="#FFFFFF" stroke-width="0.736" stroke-miterlimit="10" x1="288.126" y1="142.804" x2="215.612" y2="327.573"/>
	
		<line fill="none" stroke="#FFFFFF" stroke-width="0.736" stroke-miterlimit="10" x1="206.496" y1="325.376" x2="279.949" y2="138.215"/>
	
		<line fill="none" stroke="#FFFFFF" stroke-width="0.736" stroke-miterlimit="10" x1="275.741" y1="136.225" x2="202.058" y2="323.973"/>
	
		<line fill="none" stroke="#FFFFFF" stroke-width="0.736" stroke-miterlimit="10" x1="211.014" y1="326.577" x2="284.077" y2="140.407"/>
	
		<line fill="none" stroke="#FFFFFF" stroke-width="0.736" stroke-miterlimit="10" x1="279.949" y1="138.215" x2="206.496" y2="325.376"/>
	
		<line fill="none" stroke="#FFFFFF" stroke-width="0.736" stroke-miterlimit="10" x1="239.89" y1="329.271" x2="307.076" y2="158.077"/>
	
		<line fill="none" stroke="#FFFFFF" stroke-width="0.736" stroke-miterlimit="10" x1="303.47" y1="154.554" x2="234.852" y2="329.398"/>
	
		<line fill="none" stroke="#FFFFFF" stroke-width="0.736" stroke-miterlimit="10" x1="250.282" y1="328.214" x2="313.975" y2="165.924"/>
	
		<line fill="none" stroke="#FFFFFF" stroke-width="0.736" stroke-miterlimit="10" x1="310.58" y1="161.861" x2="245.03" y2="328.884"/>
	
		<line fill="none" stroke="#FFFFFF" stroke-width="0.736" stroke-miterlimit="10" x1="245.03" y1="328.884" x2="310.58" y2="161.861"/>
	
		<line fill="none" stroke="#FFFFFF" stroke-width="0.736" stroke-miterlimit="10" x1="307.076" y1="158.077" x2="239.89" y2="329.271"/>
	
		<line fill="none" stroke="#FFFFFF" stroke-width="0.736" stroke-miterlimit="10" x1="229.909" y1="329.28" x2="299.768" y2="151.276"/>
	
		<line fill="none" stroke="#FFFFFF" stroke-width="0.736" stroke-miterlimit="10" x1="295.974" y1="148.231" x2="225.057" y2="328.931"/>
	<path fill="none" stroke="#FFFFFF" stroke-width="0.736" stroke-miterlimit="10" d="M234.779,329.399
		c0.023,0,0.048-0.001,0.072-0.001l68.618-174.845"/>
	
		<line fill="none" stroke="#FFFFFF" stroke-width="0.736" stroke-miterlimit="10" x1="299.768" y1="151.276" x2="229.909" y2="329.28"/>
</g>
<circle opacity="0.6" fill="none" stroke="#FFFFFF" stroke-miterlimit="10" stroke-dasharray="4,2" cx="235.346" cy="228.479" r="164.816"/>
<circle opacity="0.2" fill="none" stroke="#FFFFFF" stroke-miterlimit="10" stroke-dasharray="4,2" cx="235.346" cy="228.479" r="227.979"/>
<rect x="128.542" y="44.475" opacity="0.3" fill="none" stroke="#FFFFFF" stroke-miterlimit="10" stroke-dasharray="4,2" width="63.065" height="36.009"/>
<rect x="211.564" y="44.475" opacity="0.3" fill="none" stroke="#FFFFFF" stroke-miterlimit="10" stroke-dasharray="4,2" width="63.065" height="36.009"/>
<rect x="385.545" y="272.484" opacity="0.3" fill="none" stroke="#FFFFFF" stroke-miterlimit="10" stroke-dasharray="4,2" width="18.996" height="18.997"/>
<rect x="365.406" y="181.476" opacity="0.3" fill="none" stroke="#FFFFFF" stroke-miterlimit="10" stroke-dasharray="4,2" width="18.997" height="18.997"/>
<rect x="385.545" y="301.476" opacity="0.3" fill="none" stroke="#FFFFFF" stroke-miterlimit="10" stroke-dasharray="4,2" width="18.996" height="18.997"/>
<rect x="396.57" y="191.476" opacity="0.3" fill="none" stroke="#FFFFFF" stroke-miterlimit="10" stroke-dasharray="4,2" width="8.988" height="9"/>
<rect x="419.553" y="191.473" opacity="0.3" fill="none" stroke="#FFFFFF" stroke-miterlimit="10" stroke-dasharray="4,2" width="9" height="9"/>
<rect x="365.554" y="210.473" opacity="0.3" fill="none" stroke="#FFFFFF" stroke-miterlimit="10" stroke-dasharray="4,2" width="63.065" height="36.015"/>
<rect x="341.554" y="340.484" opacity="0.3" fill="none" stroke="#FFFFFF" stroke-miterlimit="10" stroke-dasharray="4,2" width="62.987" height="36.016"/>
<rect x="95.554" y="392.479" opacity="0.3" fill="none" stroke="#FFFFFF" stroke-miterlimit="10" stroke-dasharray="4,2" width="62.988" height="36.015"/>
<rect x="95.554" y="316.478" opacity="0.3" fill="none" stroke="#FFFFFF" stroke-miterlimit="10" stroke-dasharray="4,2" width="62.988" height="36.015"/>
<rect x="181.552" y="90.469" opacity="0.3" fill="none" stroke="#FFFFFF" stroke-miterlimit="10" stroke-dasharray="4,2" width="63.065" height="16.052"/>
<circle fill="none" stroke="#FFFFFF" stroke-miterlimit="10" cx="236.53" cy="317.548" r="2.075"/>
<polyline fill="none" stroke="#FFFFFF" stroke-miterlimit="10" points="236.53,319.624 249.475,426.387 328.699,426.387 "/>
<circle opacity="0.8" fill="none" stroke="#FFFFFF" stroke-miterlimit="10" stroke-dasharray="4,2" cx="234.576" cy="228.401" r="100.92"/>
<polygon opacity="0.3" fill="none" stroke="#FFFFFF" stroke-miterlimit="10" stroke-dasharray="4,2" points="37.465,112.57 
	37.465,152.577 0.519,152.577 0.519,188.607 100.591,188.607 100.591,112.57 "/>
<g>
	<path fill="#FFFFFF" d="M337.698,430.827h-0.435c-0.101,0-0.15-0.06-0.15-0.181v-9.284c0-0.12,0.05-0.181,0.15-0.181h0.404
		c0.09,0,0.15,0.03,0.18,0.09l4.605,7.921h0.061v-7.83c0-0.12,0.055-0.181,0.164-0.181h0.42c0.111,0,0.166,0.061,0.166,0.181v9.284
		c0,0.121-0.055,0.181-0.166,0.181h-0.344c-0.09,0-0.171-0.055-0.24-0.165l-4.59-7.859h-0.061v7.844
		C337.863,430.768,337.809,430.827,337.698,430.827z"/>
	<path fill="#FFFFFF" d="M350.793,430.827h-1.845c-0.65,0-1.163-0.19-1.538-0.569c-0.375-0.381-0.563-0.9-0.563-1.561v-5.385
		c0-0.66,0.188-1.18,0.563-1.561c0.375-0.38,0.888-0.57,1.538-0.57h1.845c0.65,0,1.162,0.19,1.537,0.57
		c0.375,0.381,0.563,0.9,0.563,1.561v5.385c0,0.66-0.188,1.18-0.563,1.561C351.955,430.637,351.443,430.827,350.793,430.827z
		 M349.008,430.152h1.711c0.459,0,0.812-0.128,1.057-0.383s0.367-0.623,0.367-1.103v-5.325c0-0.479-0.122-0.848-0.367-1.102
		c-0.245-0.256-0.598-0.383-1.057-0.383h-1.711c-0.46,0-0.81,0.13-1.05,0.39c-0.239,0.261-0.36,0.625-0.36,1.095v5.325
		c0,0.47,0.121,0.835,0.36,1.095C348.198,430.022,348.548,430.152,349.008,430.152z"/>
	<path fill="#FFFFFF" d="M357.078,430.827h-0.436c-0.1,0-0.149-0.06-0.149-0.181v-9.284c0-0.12,0.05-0.181,0.149-0.181h0.406
		c0.09,0,0.149,0.03,0.18,0.09l4.605,7.921h0.059v-7.83c0-0.12,0.056-0.181,0.166-0.181h0.42c0.109,0,0.164,0.061,0.164,0.181v9.284
		c0,0.121-0.055,0.181-0.164,0.181h-0.346c-0.09,0-0.17-0.055-0.24-0.165l-4.59-7.859h-0.06v7.844
		C357.243,430.768,357.188,430.827,357.078,430.827z"/>
	<path fill="#FFFFFF" d="M375.168,430.827h-1.635c-0.65,0-1.162-0.19-1.537-0.569c-0.375-0.381-0.563-0.9-0.563-1.561v-5.385
		c0-0.66,0.188-1.18,0.563-1.561c0.375-0.38,0.887-0.57,1.537-0.57h1.635c0.65,0,1.165,0.19,1.545,0.57
		c0.381,0.381,0.57,0.9,0.57,1.561v0.675c0,0.12-0.055,0.18-0.165,0.18h-0.435c-0.111,0-0.166-0.06-0.166-0.18v-0.646
		c0-0.479-0.119-0.848-0.359-1.102c-0.24-0.256-0.59-0.383-1.051-0.383h-1.514c-0.461,0-0.811,0.13-1.051,0.39
		c-0.24,0.261-0.359,0.625-0.359,1.095v5.325c0,0.47,0.119,0.835,0.359,1.095c0.24,0.261,0.59,0.391,1.051,0.391h1.514
		c0.461,0,0.811-0.128,1.051-0.383s0.359-0.623,0.359-1.103v-1.979c0-0.09-0.045-0.135-0.135-0.135h-1.725
		c-0.11,0-0.165-0.056-0.165-0.166v-0.345c0-0.11,0.055-0.165,0.165-0.165h2.34c0.189,0,0.285,0.1,0.285,0.301v2.52
		c0,0.66-0.189,1.18-0.57,1.561C376.333,430.637,375.818,430.827,375.168,430.827z"/>
	<path fill="#FFFFFF" d="M381.453,430.827h-0.436c-0.1,0-0.15-0.06-0.15-0.181v-9.284c0-0.12,0.051-0.181,0.15-0.181h3.45
		c0.649,0,1.165,0.19,1.545,0.57c0.38,0.381,0.57,0.9,0.57,1.561v1.755c0,0.659-0.19,1.18-0.57,1.56
		c-0.38,0.381-0.896,0.57-1.545,0.57h-2.7c-0.1,0-0.15,0.04-0.15,0.12v3.329C381.617,430.768,381.563,430.827,381.453,430.827z
		 M381.768,426.508h2.641c0.459,0,0.81-0.128,1.05-0.383c0.239-0.256,0.36-0.617,0.36-1.088v-1.695c0-0.479-0.121-0.848-0.36-1.102
		c-0.24-0.256-0.591-0.383-1.05-0.383h-2.641c-0.1,0-0.15,0.045-0.15,0.135v4.395C381.617,426.467,381.668,426.508,381.768,426.508z
		"/>
	<path fill="#FFFFFF" d="M389.867,428.697v-0.54c0-0.11,0.055-0.165,0.165-0.165h0.436c0.109,0,0.165,0.055,0.165,0.165v0.495
		c0,1,0.484,1.5,1.454,1.5h1.561c0.97,0,1.455-0.505,1.455-1.516v-0.629c0-0.44-0.181-0.785-0.54-1.035
		c-0.36-0.25-0.795-0.43-1.305-0.541c-0.511-0.109-1.023-0.225-1.538-0.345s-0.952-0.34-1.313-0.659
		c-0.36-0.32-0.54-0.75-0.54-1.291v-0.824c0-0.66,0.19-1.18,0.57-1.561c0.38-0.38,0.895-0.57,1.545-0.57h1.74
		c0.649,0,1.164,0.19,1.545,0.57c0.38,0.381,0.569,0.9,0.569,1.561v0.42c0,0.109-0.055,0.164-0.165,0.164h-0.435
		c-0.11,0-0.165-0.055-0.165-0.164v-0.375c0-1-0.485-1.5-1.455-1.5h-1.545c-0.96,0-1.439,0.51-1.439,1.529v0.75
		c0,0.69,0.614,1.155,1.845,1.396c0.51,0.101,1.022,0.215,1.537,0.345c0.515,0.131,0.953,0.365,1.313,0.705
		c0.36,0.34,0.54,0.801,0.54,1.38v0.735c0,0.66-0.189,1.18-0.57,1.561c-0.38,0.379-0.895,0.569-1.545,0.569h-1.77
		c-0.65,0-1.165-0.19-1.545-0.569C390.058,429.877,389.867,429.357,389.867,428.697z"/>
	<path fill="#FFFFFF" d="M404.507,430.827h-0.465c-0.109,0-0.145-0.06-0.104-0.181l2.984-9.284c0.03-0.12,0.101-0.181,0.21-0.181
		h0.705c0.101,0,0.17,0.061,0.21,0.181l2.985,9.284c0.03,0.121-0.005,0.181-0.104,0.181h-0.48c-0.1,0-0.165-0.06-0.195-0.181
		l-0.81-2.399h-3.93l-0.811,2.399C404.662,430.768,404.598,430.827,404.507,430.827z M407.447,422.008l-1.725,5.564h3.524
		l-1.74-5.564H407.447z"/>
	<path fill="#FFFFFF" d="M414.543,430.827h-0.436c-0.1,0-0.149-0.06-0.149-0.181v-9.284c0-0.12,0.05-0.181,0.149-0.181h3.42
		c0.65,0,1.165,0.19,1.545,0.57c0.38,0.381,0.57,0.9,0.57,1.561v1.425c0,0.56-0.143,1.021-0.428,1.38s-0.673,0.59-1.162,0.689v0.061
		l1.785,3.779c0.06,0.121,0.024,0.181-0.105,0.181h-0.465c-0.13,0-0.22-0.06-0.27-0.181l-1.771-3.779h-2.37
		c-0.1,0-0.149,0.045-0.149,0.135v3.645C414.708,430.768,414.652,430.827,414.543,430.827z M414.857,426.223h2.595
		c0.46,0,0.815-0.128,1.065-0.383c0.25-0.256,0.375-0.617,0.375-1.088v-1.41c0-0.47-0.125-0.834-0.375-1.095
		c-0.25-0.26-0.605-0.39-1.065-0.39h-2.595c-0.1,0-0.149,0.045-0.149,0.135v4.095C414.708,426.178,414.758,426.223,414.857,426.223z
		"/>
	<path fill="#FFFFFF" d="M427.952,430.827h-4.635c-0.1,0-0.149-0.06-0.149-0.181v-9.284c0-0.12,0.05-0.181,0.149-0.181h4.635
		c0.12,0,0.181,0.056,0.181,0.166v0.345c0,0.11-0.061,0.165-0.181,0.165h-3.885c-0.1,0-0.149,0.045-0.149,0.135v3.45
		c0,0.09,0.05,0.135,0.149,0.135h3.465c0.11,0,0.165,0.056,0.165,0.165v0.345c0,0.11-0.055,0.165-0.165,0.165h-3.465
		c-0.1,0-0.149,0.045-0.149,0.135v3.631c0,0.09,0.05,0.135,0.149,0.135h3.885c0.12,0,0.181,0.055,0.181,0.165v0.345
		C428.133,430.772,428.072,430.827,427.952,430.827z"/>
	<path fill="#FFFFFF" d="M431.327,430.827h-0.465c-0.109,0-0.145-0.06-0.104-0.181l2.984-9.284c0.03-0.12,0.101-0.181,0.21-0.181
		h0.705c0.101,0,0.17,0.061,0.21,0.181l2.985,9.284c0.03,0.121-0.005,0.181-0.104,0.181h-0.48c-0.1,0-0.165-0.06-0.195-0.181
		l-0.81-2.399h-3.93l-0.811,2.399C431.482,430.768,431.418,430.827,431.327,430.827z M434.268,422.008l-1.725,5.564h3.524
		l-1.74-5.564H434.268z"/>
</g>
</svg>
